<?xml version="1.0" encoding="UTF-8"?>
<svg version="1.1" xmlns="http://www.w3.org/2000/svg" width="1268" height="1252">
<path d="M0 0 C418.44 0 836.88 0 1268 0 C1268 413.16 1268 826.32 1268 1252 C849.56 1252 431.12 1252 0 1252 C0 838.84 0 425.68 0 0 Z " fill="#F0993C" transform="translate(0,0)"/>
<path d="M0 0 C418.44 0 836.88 0 1268 0 C1268 413.16 1268 826.32 1268 1252 C849.56 1252 431.12 1252 0 1252 C0 838.84 0 425.68 0 0 Z M601 35 C601 35.66 601 36.32 601 37 C591.76 37 582.52 37 573 37 C573 37.66 573 38.32 573 39 C567.06 39 561.12 39 555 39 C555 39.66 555 40.32 555 41 C551.04 41 547.08 41 543 41 C543 41.66 543 42.32 543 43 C537.72 43 532.44 43 527 43 C527 43.66 527 44.32 527 45 C523.7 45 520.4 45 517 45 C517 45.66 517 46.32 517 47 C513.04 47 509.08 47 505 47 C505 47.66 505 48.32 505 49 C503.68 49 502.36 49 501 49 C501 49.66 501 50.32 501 51 C496.38 51 491.76 51 487 51 C487 51.66 487 52.32 487 53 C485.02 53 483.04 53 481 53 C481 53.66 481 54.32 481 55 C479.02 55 477.04 55 475 55 C475 55.66 475 56.32 475 57 C472.36 57 469.72 57 467 57 C467 57.66 467 58.32 467 59 C465.68 59 464.36 59 463 59 C463 59.66 463 60.32 463 61 C460.36 61 457.72 61 455 61 C455 61.66 455 62.32 455 63 C452.36 63 449.72 63 447 63 C447 63.66 447 64.32 447 65 C445.02 65 443.04 65 441 65 C441 65.66 441 66.32 441 67 C439.02 67 437.04 67 435 67 C435 67.66 435 68.32 435 69 C433.68 69 432.36 69 431 69 C431 69.66 431 70.32 431 71 C428.36 71 425.72 71 423 71 C423 71.66 423 72.32 423 73 C421.68 73 420.36 73 419 73 C419 73.66 419 74.32 419 75 C417.02 75 415.04 75 413 75 C413 75.66 413 76.32 413 77 C411.68 77 410.36 77 409 77 C409 77.66 409 78.32 409 79 C407.68 79 406.36 79 405 79 C405 79.66 405 80.32 405 81 C403.02 81 401.04 81 399 81 C399 81.66 399 82.32 399 83 C397.68 83 396.36 83 395 83 C395 83.66 395 84.32 395 85 C393.02 85 391.04 85 389 85 C389 85.66 389 86.32 389 87 C387.68 87 386.36 87 385 87 C385 87.66 385 88.32 385 89 C383.68 89 382.36 89 381 89 C381 89.66 381 90.32 381 91 C379.68 91 378.36 91 377 91 C377 91.66 377 92.32 377 93 C375.68 93 374.36 93 373 93 C373 93.66 373 94.32 373 95 C371.68 95 370.36 95 369 95 C369 95.66 369 96.32 369 97 C367.68 97 366.36 97 365 97 C365 97.66 365 98.32 365 99 C363.68 99 362.36 99 361 99 C361 99.66 361 100.32 361 101 C359.68 101 358.36 101 357 101 C357 101.66 357 102.32 357 103 C355.68 103 354.36 103 353 103 C353 103.66 353 104.32 353 105 C351.68 105 350.36 105 349 105 C349 105.66 349 106.32 349 107 C348.34 107 347.68 107 347 107 C347 107.66 347 108.32 347 109 C345.68 109 344.36 109 343 109 C343 109.66 343 110.32 343 111 C341.68 111 340.36 111 339 111 C339 111.66 339 112.32 339 113 C337.68 113 336.36 113 335 113 C335 113.66 335 114.32 335 115 C333.68 115 332.36 115 331 115 C331 115.66 331 116.32 331 117 C330.34 117 329.68 117 329 117 C329 117.66 329 118.32 329 119 C327.68 119 326.36 119 325 119 C325 119.66 325 120.32 325 121 C323.68 121 322.36 121 321 121 C321 121.66 321 122.32 321 123 C320.34 123 319.68 123 319 123 C319 123.66 319 124.32 319 125 C317.68 125 316.36 125 315 125 C315 125.66 315 126.32 315 127 C314.34 127 313.68 127 313 127 C313 127.66 313 128.32 313 129 C311.68 129 310.36 129 309 129 C309 129.66 309 130.32 309 131 C307.68 131 306.36 131 305 131 C305 131.66 305 132.32 305 133 C304.34 133 303.68 133 303 133 C303 133.66 303 134.32 303 135 C302.34 135 301.68 135 301 135 C301 135.66 301 136.32 301 137 C299.68 137 298.36 137 297 137 C297 137.66 297 138.32 297 139 C296.34 139 295.68 139 295 139 C295 139.66 295 140.32 295 141 C293.68 141 292.36 141 291 141 C291 141.66 291 142.32 291 143 C290.34 143 289.68 143 289 143 C289 143.66 289 144.32 289 145 C287.68 145 286.36 145 285 145 C285 145.66 285 146.32 285 147 C284.34 147 283.68 147 283 147 C283 147.66 283 148.32 283 149 C282.34 149 281.68 149 281 149 C281 149.66 281 150.32 281 151 C279.68 151 278.36 151 277 151 C277 151.66 277 152.32 277 153 C276.34 153 275.68 153 275 153 C275 153.66 275 154.32 275 155 C274.34 155 273.68 155 273 155 C273 155.66 273 156.32 273 157 C271.68 157 270.36 157 269 157 C269 157.66 269 158.32 269 159 C268.34 159 267.68 159 267 159 C267 159.66 267 160.32 267 161 C266.34 161 265.68 161 265 161 C265 161.66 265 162.32 265 163 C264.34 163 263.68 163 263 163 C263 163.66 263 164.32 263 165 C261.68 165 260.36 165 259 165 C259 165.66 259 166.32 259 167 C258.34 167 257.68 167 257 167 C257 167.66 257 168.32 257 169 C256.34 169 255.68 169 255 169 C255 169.66 255 170.32 255 171 C253.68 171 252.36 171 251 171 C251 171.66 251 172.32 251 173 C250.34 173 249.68 173 249 173 C249 173.66 249 174.32 249 175 C248.34 175 247.68 175 247 175 C247 175.66 247 176.32 247 177 C246.34 177 245.68 177 245 177 C245 177.66 245 178.32 245 179 C244.34 179 243.68 179 243 179 C243 179.66 243 180.32 243 181 C242.34 181 241.68 181 241 181 C241 181.66 241 182.32 241 183 C239.68 183 238.36 183 237 183 C237 183.66 237 184.32 237 185 C236.34 185 235.68 185 235 185 C235 185.66 235 186.32 235 187 C234.34 187 233.68 187 233 187 C233 187.66 233 188.32 233 189 C232.34 189 231.68 189 231 189 C231 189.66 231 190.32 231 191 C230.34 191 229.68 191 229 191 C229 191.66 229 192.32 229 193 C228.34 193 227.68 193 227 193 C227 193.66 227 194.32 227 195 C226.34 195 225.68 195 225 195 C225 195.66 225 196.32 225 197 C224.34 197 223.68 197 223 197 C223 197.66 223 198.32 223 199 C222.34 199 221.68 199 221 199 C221 199.66 221 200.32 221 201 C220.34 201 219.68 201 219 201 C219 201.66 219 202.32 219 203 C218.34 203 217.68 203 217 203 C217 203.66 217 204.32 217 205 C216.34 205 215.68 205 215 205 C215 205.66 215 206.32 215 207 C214.34 207 213.68 207 213 207 C213 207.66 213 208.32 213 209 C212.34 209 211.68 209 211 209 C211 209.66 211 210.32 211 211 C210.34 211 209.68 211 209 211 C209 211.66 209 212.32 209 213 C208.34 213 207.68 213 207 213 C207 213.66 207 214.32 207 215 C206.34 215 205.68 215 205 215 C205 215.66 205 216.32 205 217 C204.34 217 203.68 217 203 217 C203 217.66 203 218.32 203 219 C202.34 219 201.68 219 201 219 C201 219.66 201 220.32 201 221 C200.34 221 199.68 221 199 221 C199 221.66 199 222.32 199 223 C198.34 223 197.68 223 197 223 C197 223.66 197 224.32 197 225 C196.34 225 195.68 225 195 225 C195 225.66 195 226.32 195 227 C194.34 227 193.68 227 193 227 C193 227.66 193 228.32 193 229 C192.34 229 191.68 229 191 229 C191 229.66 191 230.32 191 231 C190.34 231 189.68 231 189 231 C189 231.66 189 232.32 189 233 C188.34 233 187.68 233 187 233 C187 233.66 187 234.32 187 235 C186.34 235 185.68 235 185 235 C185 236.32 185 237.64 185 239 C184.34 239 183.68 239 183 239 C183 239.66 183 240.32 183 241 C182.34 241 181.68 241 181 241 C181 241.66 181 242.32 181 243 C180.34 243 179.68 243 179 243 C179 243.66 179 244.32 179 245 C178.34 245 177.68 245 177 245 C177 245.66 177 246.32 177 247 C176.34 247 175.68 247 175 247 C175 248.32 175 249.64 175 251 C174.34 251 173.68 251 173 251 C173 251.66 173 252.32 173 253 C172.34 253 171.68 253 171 253 C171 253.66 171 254.32 171 255 C170.34 255 169.68 255 169 255 C169 255.66 169 256.32 169 257 C168.34 257 167.68 257 167 257 C167 258.32 167 259.64 167 261 C166.34 261 165.68 261 165 261 C165 261.66 165 262.32 165 263 C164.34 263 163.68 263 163 263 C163 263.66 163 264.32 163 265 C162.34 265 161.68 265 161 265 C161 265.66 161 266.32 161 267 C160.34 267 159.68 267 159 267 C159 268.32 159 269.64 159 271 C158.34 271 157.68 271 157 271 C157 271.66 157 272.32 157 273 C156.34 273 155.68 273 155 273 C155 273.66 155 274.32 155 275 C154.34 275 153.68 275 153 275 C153 276.32 153 277.64 153 279 C152.34 279 151.68 279 151 279 C151 279.66 151 280.32 151 281 C150.34 281 149.68 281 149 281 C149 281.66 149 282.32 149 283 C148.34 283 147.68 283 147 283 C147 284.32 147 285.64 147 287 C146.34 287 145.68 287 145 287 C145 287.66 145 288.32 145 289 C144.34 289 143.68 289 143 289 C143 290.32 143 291.64 143 293 C142.34 293 141.68 293 141 293 C141 293.66 141 294.32 141 295 C140.34 295 139.68 295 139 295 C139 296.32 139 297.64 139 299 C138.34 299 137.68 299 137 299 C137 299.66 137 300.32 137 301 C136.34 301 135.68 301 135 301 C135 302.32 135 303.64 135 305 C134.34 305 133.68 305 133 305 C133 305.66 133 306.32 133 307 C132.34 307 131.68 307 131 307 C131 308.32 131 309.64 131 311 C130.34 311 129.68 311 129 311 C129 311.66 129 312.32 129 313 C128.34 313 127.68 313 127 313 C127 314.32 127 315.64 127 317 C126.34 317 125.68 317 125 317 C125 318.32 125 319.64 125 321 C124.34 321 123.68 321 123 321 C123 321.66 123 322.32 123 323 C122.34 323 121.68 323 121 323 C121 324.32 121 325.64 121 327 C120.34 327 119.68 327 119 327 C119 328.32 119 329.64 119 331 C118.34 331 117.68 331 117 331 C117 332.32 117 333.64 117 335 C116.34 335 115.68 335 115 335 C115 335.66 115 336.32 115 337 C114.34 337 113.68 337 113 337 C113 338.32 113 339.64 113 341 C112.34 341 111.68 341 111 341 C111 342.32 111 343.64 111 345 C110.34 345 109.68 345 109 345 C109 345.66 109 346.32 109 347 C108.34 347 107.68 347 107 347 C107 348.98 107 350.96 107 353 C106.34 353 105.68 353 105 353 C105 353.66 105 354.32 105 355 C104.34 355 103.68 355 103 355 C103 356.32 103 357.64 103 359 C102.34 359 101.68 359 101 359 C101 360.32 101 361.64 101 363 C100.34 363 99.68 363 99 363 C99 364.32 99 365.64 99 367 C98.34 367 97.68 367 97 367 C97 368.98 97 370.96 97 373 C96.34 373 95.68 373 95 373 C95 373.66 95 374.32 95 375 C94.34 375 93.68 375 93 375 C93 376.98 93 378.96 93 381 C92.34 381 91.68 381 91 381 C91 382.32 91 383.64 91 385 C90.34 385 89.68 385 89 385 C89 386.32 89 387.64 89 389 C88.34 389 87.68 389 87 389 C87 390.98 87 392.96 87 395 C86.34 395 85.68 395 85 395 C85 396.32 85 397.64 85 399 C84.34 399 83.68 399 83 399 C83 400.32 83 401.64 83 403 C82.34 403 81.68 403 81 403 C81 404.98 81 406.96 81 409 C80.34 409 79.68 409 79 409 C79 410.32 79 411.64 79 413 C78.34 413 77.68 413 77 413 C77 414.98 77 416.96 77 419 C76.34 419 75.68 419 75 419 C75 420.32 75 421.64 75 423 C74.34 423 73.68 423 73 423 C73 424.98 73 426.96 73 429 C72.34 429 71.68 429 71 429 C71 430.98 71 432.96 71 435 C70.34 435 69.68 435 69 435 C69 436.98 69 438.96 69 441 C68.34 441 67.68 441 67 441 C67 442.98 67 444.96 67 447 C66.34 447 65.68 447 65 447 C65 448.98 65 450.96 65 453 C64.34 453 63.68 453 63 453 C63 454.98 63 456.96 63 459 C62.34 459 61.68 459 61 459 C61 461.64 61 464.28 61 467 C60.34 467 59.68 467 59 467 C59 470.3 59 473.6 59 477 C58.34 477 57.68 477 57 477 C57 478.98 57 480.96 57 483 C56.34 483 55.68 483 55 483 C55 485.64 55 488.28 55 491 C54.34 491 53.68 491 53 491 C53 494.3 53 497.6 53 501 C52.34 501 51.68 501 51 501 C51 504.96 51 508.92 51 513 C50.34 513 49.68 513 49 513 C49 516.96 49 520.92 49 525 C48.34 525 47.68 525 47 525 C47 527.64 47 530.28 47 533 C46.34 533 45.68 533 45 533 C45 538.28 45 543.56 45 549 C44.34 549 43.68 549 43 549 C43 554.28 43 559.56 43 565 C42.34 565 41.68 565 41 565 C41 570.28 41 575.56 41 581 C40.34 581 39.68 581 39 581 C39 608.72 39 636.44 39 665 C39.66 665 40.32 665 41 665 C41 671.6 41 678.2 41 685 C41.66 685 42.32 685 43 685 C43 691.6 43 698.2 43 705 C43.66 705 44.32 705 45 705 C45 710.28 45 715.56 45 721 C45.66 721 46.32 721 47 721 C47 723.64 47 726.28 47 729 C47.66 729 48.32 729 49 729 C49 734.28 49 739.56 49 745 C49.66 745 50.32 745 51 745 C51 746.32 51 747.64 51 749 C51.66 749 52.32 749 53 749 C53 752.96 53 756.92 53 761 C53.66 761 54.32 761 55 761 C55 763.64 55 766.28 55 769 C55.66 769 56.32 769 57 769 C57 770.98 57 772.96 57 775 C57.66 775 58.32 775 59 775 C59 777.64 59 780.28 59 783 C59.66 783 60.32 783 61 783 C61 785.64 61 788.28 61 791 C61.66 791 62.32 791 63 791 C63 793.64 63 796.28 63 799 C63.66 799 64.32 799 65 799 C65 800.32 65 801.64 65 803 C65.66 803 66.32 803 67 803 C67 804.98 67 806.96 67 809 C67.66 809 68.32 809 69 809 C69 811.64 69 814.28 69 817 C69.66 817 70.32 817 71 817 C71 818.98 71 820.96 71 823 C71.66 823 72.32 823 73 823 C73 824.98 73 826.96 73 829 C73.66 829 74.32 829 75 829 C75 830.32 75 831.64 75 833 C75.66 833 76.32 833 77 833 C77 834.98 77 836.96 77 839 C77.66 839 78.32 839 79 839 C79 840.98 79 842.96 79 845 C79.66 845 80.32 845 81 845 C81 846.32 81 847.64 81 849 C81.66 849 82.32 849 83 849 C83 850.98 83 852.96 83 855 C83.66 855 84.32 855 85 855 C85 856.32 85 857.64 85 859 C85.66 859 86.32 859 87 859 C87 860.32 87 861.64 87 863 C87.66 863 88.32 863 89 863 C89 864.98 89 866.96 89 869 C89.66 869 90.32 869 91 869 C91 870.32 91 871.64 91 873 C91.66 873 92.32 873 93 873 C93 874.32 93 875.64 93 877 C93.66 877 94.32 877 95 877 C95 878.32 95 879.64 95 881 C95.66 881 96.32 881 97 881 C97 882.32 97 883.64 97 885 C97.66 885 98.32 885 99 885 C99 886.32 99 887.64 99 889 C99.66 889 100.32 889 101 889 C101 890.32 101 891.64 101 893 C101.66 893 102.32 893 103 893 C103 894.32 103 895.64 103 897 C103.66 897 104.32 897 105 897 C105 898.32 105 899.64 105 901 C105.66 901 106.32 901 107 901 C107 902.32 107 903.64 107 905 C107.66 905 108.32 905 109 905 C109 906.32 109 907.64 109 909 C109.66 909 110.32 909 111 909 C111 910.32 111 911.64 111 913 C111.66 913 112.32 913 113 913 C113 914.32 113 915.64 113 917 C113.66 917 114.32 917 115 917 C115 917.66 115 918.32 115 919 C115.66 919 116.32 919 117 919 C117 920.32 117 921.64 117 923 C117.66 923 118.32 923 119 923 C119 924.32 119 925.64 119 927 C119.66 927 120.32 927 121 927 C121 927.66 121 928.32 121 929 C121.66 929 122.32 929 123 929 C123 930.32 123 931.64 123 933 C123.66 933 124.32 933 125 933 C125 934.32 125 935.64 125 937 C125.66 937 126.32 937 127 937 C127 937.66 127 938.32 127 939 C127.66 939 128.32 939 129 939 C129 940.32 129 941.64 129 943 C129.66 943 130.32 943 131 943 C131 943.66 131 944.32 131 945 C131.66 945 132.32 945 133 945 C133 946.32 133 947.64 133 949 C133.66 949 134.32 949 135 949 C135 950.32 135 951.64 135 953 C135.66 953 136.32 953 137 953 C137 953.66 137 954.32 137 955 C137.66 955 138.32 955 139 955 C139 956.32 139 957.64 139 959 C139.66 959 140.32 959 141 959 C141 959.66 141 960.32 141 961 C141.66 961 142.32 961 143 961 C143 962.32 143 963.64 143 965 C143.66 965 144.32 965 145 965 C145 965.66 145 966.32 145 967 C145.66 967 146.32 967 147 967 C147 968.32 147 969.64 147 971 C147.66 971 148.32 971 149 971 C149 971.66 149 972.32 149 973 C149.66 973 150.32 973 151 973 C151 973.66 151 974.32 151 975 C151.66 975 152.32 975 153 975 C153 976.32 153 977.64 153 979 C153.66 979 154.32 979 155 979 C155 979.66 155 980.32 155 981 C155.66 981 156.32 981 157 981 C157 981.66 157 982.32 157 983 C157.66 983 158.32 983 159 983 C159 984.32 159 985.64 159 987 C159.66 987 160.32 987 161 987 C161 987.66 161 988.32 161 989 C161.66 989 162.32 989 163 989 C163 989.66 163 990.32 163 991 C163.66 991 164.32 991 165 991 C165 991.66 165 992.32 165 993 C165.66 993 166.32 993 167 993 C167 994.32 167 995.64 167 997 C167.66 997 168.32 997 169 997 C169 997.66 169 998.32 169 999 C169.66 999 170.32 999 171 999 C171 999.66 171 1000.32 171 1001 C171.66 1001 172.32 1001 173 1001 C173 1002.32 173 1003.64 173 1005 C173.66 1005 174.32 1005 175 1005 C175 1005.66 175 1006.32 175 1007 C175.66 1007 176.32 1007 177 1007 C177 1007.66 177 1008.32 177 1009 C177.66 1009 178.32 1009 179 1009 C179 1009.66 179 1010.32 179 1011 C179.66 1011 180.32 1011 181 1011 C181 1011.66 181 1012.32 181 1013 C181.66 1013 182.32 1013 183 1013 C183 1013.66 183 1014.32 183 1015 C183.66 1015 184.32 1015 185 1015 C185 1016.32 185 1017.64 185 1019 C185.66 1019 186.32 1019 187 1019 C187 1019.66 187 1020.32 187 1021 C187.66 1021 188.32 1021 189 1021 C189 1021.66 189 1022.32 189 1023 C189.66 1023 190.32 1023 191 1023 C191 1023.66 191 1024.32 191 1025 C191.66 1025 192.32 1025 193 1025 C193 1025.66 193 1026.32 193 1027 C193.66 1027 194.32 1027 195 1027 C195 1027.66 195 1028.32 195 1029 C195.66 1029 196.32 1029 197 1029 C197 1029.66 197 1030.32 197 1031 C197.66 1031 198.32 1031 199 1031 C199 1031.66 199 1032.32 199 1033 C199.66 1033 200.32 1033 201 1033 C201 1033.66 201 1034.32 201 1035 C201.66 1035 202.32 1035 203 1035 C203 1035.66 203 1036.32 203 1037 C203.66 1037 204.32 1037 205 1037 C205 1037.66 205 1038.32 205 1039 C205.66 1039 206.32 1039 207 1039 C207 1039.66 207 1040.32 207 1041 C207.66 1041 208.32 1041 209 1041 C209 1042.32 209 1043.64 209 1045 C210.32 1045 211.64 1045 213 1045 C213 1046.32 213 1047.64 213 1049 C213.66 1049 214.32 1049 215 1049 C215 1049.66 215 1050.32 215 1051 C215.66 1051 216.32 1051 217 1051 C217 1051.66 217 1052.32 217 1053 C218.32 1053 219.64 1053 221 1053 C221 1053.66 221 1054.32 221 1055 C221.66 1055 222.32 1055 223 1055 C223 1055.66 223 1056.32 223 1057 C223.66 1057 224.32 1057 225 1057 C225 1057.66 225 1058.32 225 1059 C225.66 1059 226.32 1059 227 1059 C227 1059.66 227 1060.32 227 1061 C227.66 1061 228.32 1061 229 1061 C229 1061.66 229 1062.32 229 1063 C229.66 1063 230.32 1063 231 1063 C231 1063.66 231 1064.32 231 1065 C231.66 1065 232.32 1065 233 1065 C233 1065.66 233 1066.32 233 1067 C233.66 1067 234.32 1067 235 1067 C235 1067.66 235 1068.32 235 1069 C235.66 1069 236.32 1069 237 1069 C237 1069.66 237 1070.32 237 1071 C237.66 1071 238.32 1071 239 1071 C239 1071.66 239 1072.32 239 1073 C240.32 1073 241.64 1073 243 1073 C243 1073.66 243 1074.32 243 1075 C243.66 1075 244.32 1075 245 1075 C245 1075.66 245 1076.32 245 1077 C245.66 1077 246.32 1077 247 1077 C247 1077.66 247 1078.32 247 1079 C247.66 1079 248.32 1079 249 1079 C249 1079.66 249 1080.32 249 1081 C249.66 1081 250.32 1081 251 1081 C251 1081.66 251 1082.32 251 1083 C251.66 1083 252.32 1083 253 1083 C253 1083.66 253 1084.32 253 1085 C254.32 1085 255.64 1085 257 1085 C257 1085.66 257 1086.32 257 1087 C257.66 1087 258.32 1087 259 1087 C259 1087.66 259 1088.32 259 1089 C259.66 1089 260.32 1089 261 1089 C261 1089.66 261 1090.32 261 1091 C261.66 1091 262.32 1091 263 1091 C263 1091.66 263 1092.32 263 1093 C263.66 1093 264.32 1093 265 1093 C265 1093.66 265 1094.32 265 1095 C266.32 1095 267.64 1095 269 1095 C269 1095.66 269 1096.32 269 1097 C269.66 1097 270.32 1097 271 1097 C271 1097.66 271 1098.32 271 1099 C271.66 1099 272.32 1099 273 1099 C273 1099.66 273 1100.32 273 1101 C274.32 1101 275.64 1101 277 1101 C277 1101.66 277 1102.32 277 1103 C277.66 1103 278.32 1103 279 1103 C279 1103.66 279 1104.32 279 1105 C280.32 1105 281.64 1105 283 1105 C283 1105.66 283 1106.32 283 1107 C283.66 1107 284.32 1107 285 1107 C285 1107.66 285 1108.32 285 1109 C285.66 1109 286.32 1109 287 1109 C287 1109.66 287 1110.32 287 1111 C288.32 1111 289.64 1111 291 1111 C291 1111.66 291 1112.32 291 1113 C291.66 1113 292.32 1113 293 1113 C293 1113.66 293 1114.32 293 1115 C294.32 1115 295.64 1115 297 1115 C297 1115.66 297 1116.32 297 1117 C297.66 1117 298.32 1117 299 1117 C299 1117.66 299 1118.32 299 1119 C299.66 1119 300.32 1119 301 1119 C301 1119.66 301 1120.32 301 1121 C302.32 1121 303.64 1121 305 1121 C305 1121.66 305 1122.32 305 1123 C305.66 1123 306.32 1123 307 1123 C307 1123.66 307 1124.32 307 1125 C308.32 1125 309.64 1125 311 1125 C311 1125.66 311 1126.32 311 1127 C312.32 1127 313.64 1127 315 1127 C315 1127.66 315 1128.32 315 1129 C315.66 1129 316.32 1129 317 1129 C317 1129.66 317 1130.32 317 1131 C318.32 1131 319.64 1131 321 1131 C321 1131.66 321 1132.32 321 1133 C321.66 1133 322.32 1133 323 1133 C323 1133.66 323 1134.32 323 1135 C324.32 1135 325.64 1135 327 1135 C327 1135.66 327 1136.32 327 1137 C328.32 1137 329.64 1137 331 1137 C331 1137.66 331 1138.32 331 1139 C331.66 1139 332.32 1139 333 1139 C333 1139.66 333 1140.32 333 1141 C334.32 1141 335.64 1141 337 1141 C337 1141.66 337 1142.32 337 1143 C338.32 1143 339.64 1143 341 1143 C341 1143.66 341 1144.32 341 1145 C342.32 1145 343.64 1145 345 1145 C345 1145.66 345 1146.32 345 1147 C346.32 1147 347.64 1147 349 1147 C349 1147.66 349 1148.32 349 1149 C349.66 1149 350.32 1149 351 1149 C351 1149.66 351 1150.32 351 1151 C352.32 1151 353.64 1151 355 1151 C355 1151.66 355 1152.32 355 1153 C356.32 1153 357.64 1153 359 1153 C359 1153.66 359 1154.32 359 1155 C360.32 1155 361.64 1155 363 1155 C363 1155.66 363 1156.32 363 1157 C364.32 1157 365.64 1157 367 1157 C367 1157.66 367 1158.32 367 1159 C368.32 1159 369.64 1159 371 1159 C371 1159.66 371 1160.32 371 1161 C372.32 1161 373.64 1161 375 1161 C375 1161.66 375 1162.32 375 1163 C376.32 1163 377.64 1163 379 1163 C379 1163.66 379 1164.32 379 1165 C380.98 1165 382.96 1165 385 1165 C385 1165.66 385 1166.32 385 1167 C386.32 1167 387.64 1167 389 1167 C389 1167.66 389 1168.32 389 1169 C390.32 1169 391.64 1169 393 1169 C393 1169.66 393 1170.32 393 1171 C394.32 1171 395.64 1171 397 1171 C397 1171.66 397 1172.32 397 1173 C398.32 1173 399.64 1173 401 1173 C401 1173.66 401 1174.32 401 1175 C402.98 1175 404.96 1175 407 1175 C407 1175.66 407 1176.32 407 1177 C408.32 1177 409.64 1177 411 1177 C411 1177.66 411 1178.32 411 1179 C412.98 1179 414.96 1179 417 1179 C417 1179.66 417 1180.32 417 1181 C418.98 1181 420.96 1181 423 1181 C423 1181.66 423 1182.32 423 1183 C424.32 1183 425.64 1183 427 1183 C427 1183.66 427 1184.32 427 1185 C428.98 1185 430.96 1185 433 1185 C433 1185.66 433 1186.32 433 1187 C434.98 1187 436.96 1187 439 1187 C439 1187.66 439 1188.32 439 1189 C440.98 1189 442.96 1189 445 1189 C445 1189.66 445 1190.32 445 1191 C446.98 1191 448.96 1191 451 1191 C451 1191.66 451 1192.32 451 1193 C452.32 1193 453.64 1193 455 1193 C455 1193.66 455 1194.32 455 1195 C457.64 1195 460.28 1195 463 1195 C463 1195.66 463 1196.32 463 1197 C464.98 1197 466.96 1197 469 1197 C469 1197.66 469 1198.32 469 1199 C472.3 1199 475.6 1199 479 1199 C479 1199.66 479 1200.32 479 1201 C480.98 1201 482.96 1201 485 1201 C485 1201.66 485 1202.32 485 1203 C486.98 1203 488.96 1203 491 1203 C491 1203.66 491 1204.32 491 1205 C495.62 1205 500.24 1205 505 1205 C505 1205.66 505 1206.32 505 1207 C506.32 1207 507.64 1207 509 1207 C509 1207.66 509 1208.32 509 1209 C512.3 1209 515.6 1209 519 1209 C519 1209.66 519 1210.32 519 1211 C522.96 1211 526.92 1211 531 1211 C531 1211.66 531 1212.32 531 1213 C536.28 1213 541.56 1213 547 1213 C547 1213.66 547 1214.32 547 1215 C550.96 1215 554.92 1215 559 1215 C559 1215.66 559 1216.32 559 1217 C564.28 1217 569.56 1217 575 1217 C575 1217.66 575 1218.32 575 1219 C581.6 1219 588.2 1219 595 1219 C595 1219.66 595 1220.32 595 1221 C621.4 1221 647.8 1221 675 1221 C675 1220.34 675 1219.68 675 1219 C679.62 1219 684.24 1219 689 1219 C689 1218.34 689 1217.68 689 1217 C694.94 1217 700.88 1217 707 1217 C707 1216.34 707 1215.68 707 1215 C710.3 1215 713.6 1215 717 1215 C717 1214.34 717 1213.68 717 1213 C722.94 1213 728.88 1213 735 1213 C735 1212.34 735 1211.68 735 1211 C737.64 1211 740.28 1211 743 1211 C743 1210.34 743 1209.68 743 1209 C747.62 1209 752.24 1209 757 1209 C757 1208.34 757 1207.68 757 1207 C758.32 1207 759.64 1207 761 1207 C761 1206.34 761 1205.68 761 1205 C764.3 1205 767.6 1205 771 1205 C771 1204.34 771 1203.68 771 1203 C773.64 1203 776.28 1203 779 1203 C779 1202.34 779 1201.68 779 1201 C780.98 1201 782.96 1201 785 1201 C785 1200.34 785 1199.68 785 1199 C787.64 1199 790.28 1199 793 1199 C793 1198.34 793 1197.68 793 1197 C795.64 1197 798.28 1197 801 1197 C801 1196.34 801 1195.68 801 1195 C803.64 1195 806.28 1195 809 1195 C809 1194.34 809 1193.68 809 1193 C810.98 1193 812.96 1193 815 1193 C815 1192.34 815 1191.68 815 1191 C816.32 1191 817.64 1191 819 1191 C819 1190.34 819 1189.68 819 1189 C820.98 1189 822.96 1189 825 1189 C825 1188.34 825 1187.68 825 1187 C826.98 1187 828.96 1187 831 1187 C831 1186.34 831 1185.68 831 1185 C832.98 1185 834.96 1185 837 1185 C837 1184.34 837 1183.68 837 1183 C838.98 1183 840.96 1183 843 1183 C843 1182.34 843 1181.68 843 1181 C844.32 1181 845.64 1181 847 1181 C847 1180.34 847 1179.68 847 1179 C848.98 1179 850.96 1179 853 1179 C853 1178.34 853 1177.68 853 1177 C854.32 1177 855.64 1177 857 1177 C857 1176.34 857 1175.68 857 1175 C858.98 1175 860.96 1175 863 1175 C863 1174.34 863 1173.68 863 1173 C864.32 1173 865.64 1173 867 1173 C867 1172.34 867 1171.68 867 1171 C868.32 1171 869.64 1171 871 1171 C871 1170.34 871 1169.68 871 1169 C872.98 1169 874.96 1169 877 1169 C877 1168.34 877 1167.68 877 1167 C877.66 1167 878.32 1167 879 1167 C879 1166.34 879 1165.68 879 1165 C880.98 1165 882.96 1165 885 1165 C885 1164.34 885 1163.68 885 1163 C886.32 1163 887.64 1163 889 1163 C889 1162.34 889 1161.68 889 1161 C890.32 1161 891.64 1161 893 1161 C893 1160.34 893 1159.68 893 1159 C894.32 1159 895.64 1159 897 1159 C897 1158.34 897 1157.68 897 1157 C898.32 1157 899.64 1157 901 1157 C901 1156.34 901 1155.68 901 1155 C902.32 1155 903.64 1155 905 1155 C905 1154.34 905 1153.68 905 1153 C906.32 1153 907.64 1153 909 1153 C909 1152.34 909 1151.68 909 1151 C910.32 1151 911.64 1151 913 1151 C913 1150.34 913 1149.68 913 1149 C914.32 1149 915.64 1149 917 1149 C917 1148.34 917 1147.68 917 1147 C917.66 1147 918.32 1147 919 1147 C919 1146.34 919 1145.68 919 1145 C920.32 1145 921.64 1145 923 1145 C923 1144.34 923 1143.68 923 1143 C924.32 1143 925.64 1143 927 1143 C927 1142.34 927 1141.68 927 1141 C928.32 1141 929.64 1141 931 1141 C931 1140.34 931 1139.68 931 1139 C931.66 1139 932.32 1139 933 1139 C933 1138.34 933 1137.68 933 1137 C934.32 1137 935.64 1137 937 1137 C937 1136.34 937 1135.68 937 1135 C938.32 1135 939.64 1135 941 1135 C941 1134.34 941 1133.68 941 1133 C941.66 1133 942.32 1133 943 1133 C943 1132.34 943 1131.68 943 1131 C944.32 1131 945.64 1131 947 1131 C947 1130.34 947 1129.68 947 1129 C948.32 1129 949.64 1129 951 1129 C951 1128.34 951 1127.68 951 1127 C951.66 1127 952.32 1127 953 1127 C953 1126.34 953 1125.68 953 1125 C954.32 1125 955.64 1125 957 1125 C957 1124.34 957 1123.68 957 1123 C957.66 1123 958.32 1123 959 1123 C959 1122.34 959 1121.68 959 1121 C960.32 1121 961.64 1121 963 1121 C963 1120.34 963 1119.68 963 1119 C963.66 1119 964.32 1119 965 1119 C965 1118.34 965 1117.68 965 1117 C965.66 1117 966.32 1117 967 1117 C967 1116.34 967 1115.68 967 1115 C968.32 1115 969.64 1115 971 1115 C971 1114.34 971 1113.68 971 1113 C971.66 1113 972.32 1113 973 1113 C973 1112.34 973 1111.68 973 1111 C974.32 1111 975.64 1111 977 1111 C977 1110.34 977 1109.68 977 1109 C977.66 1109 978.32 1109 979 1109 C979 1108.34 979 1107.68 979 1107 C979.66 1107 980.32 1107 981 1107 C981 1106.34 981 1105.68 981 1105 C982.32 1105 983.64 1105 985 1105 C985 1104.34 985 1103.68 985 1103 C985.66 1103 986.32 1103 987 1103 C987 1102.34 987 1101.68 987 1101 C988.32 1101 989.64 1101 991 1101 C991 1100.34 991 1099.68 991 1099 C991.66 1099 992.32 1099 993 1099 C993 1098.34 993 1097.68 993 1097 C993.66 1097 994.32 1097 995 1097 C995 1096.34 995 1095.68 995 1095 C996.32 1095 997.64 1095 999 1095 C999 1094.34 999 1093.68 999 1093 C999.66 1093 1000.32 1093 1001 1093 C1001 1092.34 1001 1091.68 1001 1091 C1001.66 1091 1002.32 1091 1003 1091 C1003 1090.34 1003 1089.68 1003 1089 C1003.66 1089 1004.32 1089 1005 1089 C1005 1088.34 1005 1087.68 1005 1087 C1005.66 1087 1006.32 1087 1007 1087 C1007 1086.34 1007 1085.68 1007 1085 C1008.32 1085 1009.64 1085 1011 1085 C1011 1084.34 1011 1083.68 1011 1083 C1011.66 1083 1012.32 1083 1013 1083 C1013 1082.34 1013 1081.68 1013 1081 C1013.66 1081 1014.32 1081 1015 1081 C1015 1080.34 1015 1079.68 1015 1079 C1015.66 1079 1016.32 1079 1017 1079 C1017 1078.34 1017 1077.68 1017 1077 C1017.66 1077 1018.32 1077 1019 1077 C1019 1076.34 1019 1075.68 1019 1075 C1020.32 1075 1021.64 1075 1023 1075 C1023 1074.34 1023 1073.68 1023 1073 C1023.66 1073 1024.32 1073 1025 1073 C1025 1072.34 1025 1071.68 1025 1071 C1025.66 1071 1026.32 1071 1027 1071 C1027 1070.34 1027 1069.68 1027 1069 C1027.66 1069 1028.32 1069 1029 1069 C1029 1068.34 1029 1067.68 1029 1067 C1029.66 1067 1030.32 1067 1031 1067 C1031 1066.34 1031 1065.68 1031 1065 C1031.66 1065 1032.32 1065 1033 1065 C1033 1064.34 1033 1063.68 1033 1063 C1033.66 1063 1034.32 1063 1035 1063 C1035 1062.34 1035 1061.68 1035 1061 C1035.66 1061 1036.32 1061 1037 1061 C1037 1060.34 1037 1059.68 1037 1059 C1037.66 1059 1038.32 1059 1039 1059 C1039 1058.34 1039 1057.68 1039 1057 C1039.66 1057 1040.32 1057 1041 1057 C1041 1056.34 1041 1055.68 1041 1055 C1042.32 1055 1043.64 1055 1045 1055 C1045 1053.68 1045 1052.36 1045 1051 C1046.32 1051 1047.64 1051 1049 1051 C1049 1050.34 1049 1049.68 1049 1049 C1049.66 1049 1050.32 1049 1051 1049 C1051 1048.34 1051 1047.68 1051 1047 C1051.66 1047 1052.32 1047 1053 1047 C1053 1045.68 1053 1044.36 1053 1043 C1053.66 1043 1054.32 1043 1055 1043 C1055 1042.34 1055 1041.68 1055 1041 C1055.66 1041 1056.32 1041 1057 1041 C1057 1040.34 1057 1039.68 1057 1039 C1057.66 1039 1058.32 1039 1059 1039 C1059 1038.34 1059 1037.68 1059 1037 C1059.66 1037 1060.32 1037 1061 1037 C1061 1036.34 1061 1035.68 1061 1035 C1061.66 1035 1062.32 1035 1063 1035 C1063 1034.34 1063 1033.68 1063 1033 C1063.66 1033 1064.32 1033 1065 1033 C1065 1032.34 1065 1031.68 1065 1031 C1065.66 1031 1066.32 1031 1067 1031 C1067 1030.34 1067 1029.68 1067 1029 C1067.66 1029 1068.32 1029 1069 1029 C1069 1028.34 1069 1027.68 1069 1027 C1069.66 1027 1070.32 1027 1071 1027 C1071 1026.34 1071 1025.68 1071 1025 C1071.66 1025 1072.32 1025 1073 1025 C1073 1024.34 1073 1023.68 1073 1023 C1073.66 1023 1074.32 1023 1075 1023 C1075 1022.34 1075 1021.68 1075 1021 C1075.66 1021 1076.32 1021 1077 1021 C1077 1020.34 1077 1019.68 1077 1019 C1077.66 1019 1078.32 1019 1079 1019 C1079 1017.68 1079 1016.36 1079 1015 C1079.66 1015 1080.32 1015 1081 1015 C1081 1014.34 1081 1013.68 1081 1013 C1081.66 1013 1082.32 1013 1083 1013 C1083 1012.34 1083 1011.68 1083 1011 C1083.66 1011 1084.32 1011 1085 1011 C1085 1010.34 1085 1009.68 1085 1009 C1085.66 1009 1086.32 1009 1087 1009 C1087 1008.34 1087 1007.68 1087 1007 C1087.66 1007 1088.32 1007 1089 1007 C1089 1006.34 1089 1005.68 1089 1005 C1089.66 1005 1090.32 1005 1091 1005 C1091 1003.68 1091 1002.36 1091 1001 C1091.66 1001 1092.32 1001 1093 1001 C1093 1000.34 1093 999.68 1093 999 C1093.66 999 1094.32 999 1095 999 C1095 998.34 1095 997.68 1095 997 C1095.66 997 1096.32 997 1097 997 C1097 996.34 1097 995.68 1097 995 C1097.66 995 1098.32 995 1099 995 C1099 993.68 1099 992.36 1099 991 C1099.66 991 1100.32 991 1101 991 C1101 990.34 1101 989.68 1101 989 C1101.66 989 1102.32 989 1103 989 C1103 988.34 1103 987.68 1103 987 C1103.66 987 1104.32 987 1105 987 C1105 985.68 1105 984.36 1105 983 C1105.66 983 1106.32 983 1107 983 C1107 982.34 1107 981.68 1107 981 C1107.66 981 1108.32 981 1109 981 C1109 980.34 1109 979.68 1109 979 C1109.66 979 1110.32 979 1111 979 C1111 977.68 1111 976.36 1111 975 C1111.66 975 1112.32 975 1113 975 C1113 974.34 1113 973.68 1113 973 C1113.66 973 1114.32 973 1115 973 C1115 972.34 1115 971.68 1115 971 C1115.66 971 1116.32 971 1117 971 C1117 969.68 1117 968.36 1117 967 C1117.66 967 1118.32 967 1119 967 C1119 966.34 1119 965.68 1119 965 C1119.66 965 1120.32 965 1121 965 C1121 963.68 1121 962.36 1121 961 C1121.66 961 1122.32 961 1123 961 C1123 960.34 1123 959.68 1123 959 C1123.66 959 1124.32 959 1125 959 C1125 957.68 1125 956.36 1125 955 C1125.66 955 1126.32 955 1127 955 C1127 954.34 1127 953.68 1127 953 C1127.66 953 1128.32 953 1129 953 C1129 951.68 1129 950.36 1129 949 C1129.66 949 1130.32 949 1131 949 C1131 948.34 1131 947.68 1131 947 C1131.66 947 1132.32 947 1133 947 C1133 945.68 1133 944.36 1133 943 C1133.66 943 1134.32 943 1135 943 C1135 941.68 1135 940.36 1135 939 C1135.66 939 1136.32 939 1137 939 C1137 938.34 1137 937.68 1137 937 C1137.66 937 1138.32 937 1139 937 C1139 935.68 1139 934.36 1139 933 C1139.66 933 1140.32 933 1141 933 C1141 932.34 1141 931.68 1141 931 C1141.66 931 1142.32 931 1143 931 C1143 929.68 1143 928.36 1143 927 C1143.66 927 1144.32 927 1145 927 C1145 925.68 1145 924.36 1145 923 C1145.66 923 1146.32 923 1147 923 C1147 921.68 1147 920.36 1147 919 C1147.66 919 1148.32 919 1149 919 C1149 917.68 1149 916.36 1149 915 C1149.66 915 1150.32 915 1151 915 C1151 914.34 1151 913.68 1151 913 C1151.66 913 1152.32 913 1153 913 C1153 911.68 1153 910.36 1153 909 C1153.66 909 1154.32 909 1155 909 C1155 907.68 1155 906.36 1155 905 C1155.66 905 1156.32 905 1157 905 C1157 903.68 1157 902.36 1157 901 C1157.66 901 1158.32 901 1159 901 C1159 899.68 1159 898.36 1159 897 C1159.66 897 1160.32 897 1161 897 C1161 895.68 1161 894.36 1161 893 C1161.66 893 1162.32 893 1163 893 C1163 891.68 1163 890.36 1163 889 C1163.66 889 1164.32 889 1165 889 C1165 887.68 1165 886.36 1165 885 C1165.66 885 1166.32 885 1167 885 C1167 883.68 1167 882.36 1167 881 C1167.66 881 1168.32 881 1169 881 C1169 879.68 1169 878.36 1169 877 C1169.66 877 1170.32 877 1171 877 C1171 875.68 1171 874.36 1171 873 C1171.66 873 1172.32 873 1173 873 C1173 871.02 1173 869.04 1173 867 C1173.66 867 1174.32 867 1175 867 C1175 865.68 1175 864.36 1175 863 C1175.66 863 1176.32 863 1177 863 C1177 861.68 1177 860.36 1177 859 C1177.66 859 1178.32 859 1179 859 C1179 857.02 1179 855.04 1179 853 C1179.66 853 1180.32 853 1181 853 C1181 851.68 1181 850.36 1181 849 C1181.66 849 1182.32 849 1183 849 C1183 847.02 1183 845.04 1183 843 C1183.66 843 1184.32 843 1185 843 C1185 841.68 1185 840.36 1185 839 C1185.66 839 1186.32 839 1187 839 C1187 837.02 1187 835.04 1187 833 C1187.66 833 1188.32 833 1189 833 C1189 831.02 1189 829.04 1189 827 C1189.66 827 1190.32 827 1191 827 C1191 825.68 1191 824.36 1191 823 C1191.66 823 1192.32 823 1193 823 C1193 821.68 1193 820.36 1193 819 C1193.66 819 1194.32 819 1195 819 C1195 816.36 1195 813.72 1195 811 C1195.66 811 1196.32 811 1197 811 C1197 809.68 1197 808.36 1197 807 C1197.66 807 1198.32 807 1199 807 C1199 803.7 1199 800.4 1199 797 C1199.66 797 1200.32 797 1201 797 C1201 795.02 1201 793.04 1201 791 C1201.66 791 1202.32 791 1203 791 C1203 789.02 1203 787.04 1203 785 C1203.66 785 1204.32 785 1205 785 C1205 782.36 1205 779.72 1205 777 C1205.66 777 1206.32 777 1207 777 C1207 774.36 1207 771.72 1207 769 C1207.66 769 1208.32 769 1209 769 C1209 765.7 1209 762.4 1209 759 C1209.66 759 1210.32 759 1211 759 C1211 756.36 1211 753.72 1211 751 C1211.66 751 1212.32 751 1213 751 C1213 747.7 1213 744.4 1213 741 C1213.66 741 1214.32 741 1215 741 C1215 737.7 1215 734.4 1215 731 C1215.66 731 1216.32 731 1217 731 C1217 726.38 1217 721.76 1217 717 C1217.66 717 1218.32 717 1219 717 C1219 711.72 1219 706.44 1219 701 C1219.66 701 1220.32 701 1221 701 C1221 697.04 1221 693.08 1221 689 C1221.66 689 1222.32 689 1223 689 C1223 679.1 1223 669.2 1223 659 C1223.66 659 1224.32 659 1225 659 C1225 634.58 1225 610.16 1225 585 C1224.34 585 1223.68 585 1223 585 C1223 579.72 1223 574.44 1223 569 C1222.34 569 1221.68 569 1221 569 C1221 564.38 1221 559.76 1221 555 C1220.34 555 1219.68 555 1219 555 C1219 549.72 1219 544.44 1219 539 C1218.34 539 1217.68 539 1217 539 C1217 535.04 1217 531.08 1217 527 C1216.34 527 1215.68 527 1215 527 C1215 523.7 1215 520.4 1215 517 C1214.34 517 1213.68 517 1213 517 C1213 514.36 1213 511.72 1213 509 C1212.34 509 1211.68 509 1211 509 C1211 505.7 1211 502.4 1211 499 C1210.34 499 1209.68 499 1209 499 C1209 496.36 1209 493.72 1209 491 C1208.34 491 1207.68 491 1207 491 C1207 487.7 1207 484.4 1207 481 C1206.34 481 1205.68 481 1205 481 C1205 478.36 1205 475.72 1205 473 C1204.34 473 1203.68 473 1203 473 C1203 471.02 1203 469.04 1203 467 C1202.34 467 1201.68 467 1201 467 C1201 465.68 1201 464.36 1201 463 C1200.34 463 1199.68 463 1199 463 C1199 459.7 1199 456.4 1199 453 C1198.34 453 1197.68 453 1197 453 C1197 451.02 1197 449.04 1197 447 C1196.34 447 1195.68 447 1195 447 C1195 445.68 1195 444.36 1195 443 C1194.34 443 1193.68 443 1193 443 C1193 440.36 1193 437.72 1193 435 C1192.34 435 1191.68 435 1191 435 C1191 434.34 1191 433.68 1191 433 C1190.34 433 1189.68 433 1189 433 C1189 430.36 1189 427.72 1189 425 C1188.34 425 1187.68 425 1187 425 C1187 423.02 1187 421.04 1187 419 C1186.34 419 1185.68 419 1185 419 C1185 417.02 1185 415.04 1185 413 C1184.34 413 1183.68 413 1183 413 C1183 411.68 1183 410.36 1183 409 C1182.34 409 1181.68 409 1181 409 C1181 407.68 1181 406.36 1181 405 C1180.34 405 1179.68 405 1179 405 C1179 403.02 1179 401.04 1179 399 C1178.34 399 1177.68 399 1177 399 C1177 397.68 1177 396.36 1177 395 C1176.34 395 1175.68 395 1175 395 C1175 393.68 1175 392.36 1175 391 C1174.34 391 1173.68 391 1173 391 C1173 389.02 1173 387.04 1173 385 C1172.34 385 1171.68 385 1171 385 C1171 383.68 1171 382.36 1171 381 C1170.34 381 1169.68 381 1169 381 C1169 379.68 1169 378.36 1169 377 C1168.34 377 1167.68 377 1167 377 C1167 375.68 1167 374.36 1167 373 C1166.34 373 1165.68 373 1165 373 C1165 371.68 1165 370.36 1165 369 C1164.34 369 1163.68 369 1163 369 C1163 367.68 1163 366.36 1163 365 C1162.34 365 1161.68 365 1161 365 C1161 363.68 1161 362.36 1161 361 C1160.34 361 1159.68 361 1159 361 C1159 359.68 1159 358.36 1159 357 C1158.34 357 1157.68 357 1157 357 C1157 355.68 1157 354.36 1157 353 C1156.34 353 1155.68 353 1155 353 C1155 351.68 1155 350.36 1155 349 C1154.34 349 1153.68 349 1153 349 C1153 348.34 1153 347.68 1153 347 C1152.34 347 1151.68 347 1151 347 C1151 345.68 1151 344.36 1151 343 C1150.34 343 1149.68 343 1149 343 C1149 341.68 1149 340.36 1149 339 C1148.34 339 1147.68 339 1147 339 C1147 337.68 1147 336.36 1147 335 C1146.34 335 1145.68 335 1145 335 C1145 333.68 1145 332.36 1145 331 C1144.34 331 1143.68 331 1143 331 C1143 330.34 1143 329.68 1143 329 C1142.34 329 1141.68 329 1141 329 C1141 327.68 1141 326.36 1141 325 C1140.34 325 1139.68 325 1139 325 C1139 323.68 1139 322.36 1139 321 C1138.34 321 1137.68 321 1137 321 C1137 320.34 1137 319.68 1137 319 C1136.34 319 1135.68 319 1135 319 C1135 317.68 1135 316.36 1135 315 C1134.34 315 1133.68 315 1133 315 C1133 314.34 1133 313.68 1133 313 C1132.34 313 1131.68 313 1131 313 C1131 311.68 1131 310.36 1131 309 C1130.34 309 1129.68 309 1129 309 C1129 307.68 1129 306.36 1129 305 C1128.34 305 1127.68 305 1127 305 C1127 304.34 1127 303.68 1127 303 C1126.34 303 1125.68 303 1125 303 C1125 301.68 1125 300.36 1125 299 C1124.34 299 1123.68 299 1123 299 C1123 298.34 1123 297.68 1123 297 C1122.34 297 1121.68 297 1121 297 C1121 296.34 1121 295.68 1121 295 C1120.34 295 1119.68 295 1119 295 C1119 293.68 1119 292.36 1119 291 C1118.34 291 1117.68 291 1117 291 C1117 290.34 1117 289.68 1117 289 C1116.34 289 1115.68 289 1115 289 C1115 287.68 1115 286.36 1115 285 C1114.34 285 1113.68 285 1113 285 C1113 284.34 1113 283.68 1113 283 C1112.34 283 1111.68 283 1111 283 C1111 282.34 1111 281.68 1111 281 C1110.34 281 1109.68 281 1109 281 C1109 279.68 1109 278.36 1109 277 C1108.34 277 1107.68 277 1107 277 C1107 276.34 1107 275.68 1107 275 C1106.34 275 1105.68 275 1105 275 C1105 273.68 1105 272.36 1105 271 C1104.34 271 1103.68 271 1103 271 C1103 270.34 1103 269.68 1103 269 C1102.34 269 1101.68 269 1101 269 C1101 268.34 1101 267.68 1101 267 C1100.34 267 1099.68 267 1099 267 C1099 266.34 1099 265.68 1099 265 C1098.34 265 1097.68 265 1097 265 C1097 263.68 1097 262.36 1097 261 C1096.34 261 1095.68 261 1095 261 C1095 260.34 1095 259.68 1095 259 C1094.34 259 1093.68 259 1093 259 C1093 258.34 1093 257.68 1093 257 C1092.34 257 1091.68 257 1091 257 C1091 256.34 1091 255.68 1091 255 C1090.34 255 1089.68 255 1089 255 C1089 253.68 1089 252.36 1089 251 C1088.34 251 1087.68 251 1087 251 C1087 250.34 1087 249.68 1087 249 C1086.34 249 1085.68 249 1085 249 C1085 248.34 1085 247.68 1085 247 C1084.34 247 1083.68 247 1083 247 C1083 246.34 1083 245.68 1083 245 C1082.34 245 1081.68 245 1081 245 C1081 244.34 1081 243.68 1081 243 C1080.34 243 1079.68 243 1079 243 C1079 242.34 1079 241.68 1079 241 C1078.34 241 1077.68 241 1077 241 C1077 240.34 1077 239.68 1077 239 C1076.34 239 1075.68 239 1075 239 C1075 237.68 1075 236.36 1075 235 C1074.34 235 1073.68 235 1073 235 C1073 234.34 1073 233.68 1073 233 C1072.34 233 1071.68 233 1071 233 C1071 232.34 1071 231.68 1071 231 C1070.34 231 1069.68 231 1069 231 C1069 230.34 1069 229.68 1069 229 C1068.34 229 1067.68 229 1067 229 C1067 228.34 1067 227.68 1067 227 C1066.34 227 1065.68 227 1065 227 C1065 226.34 1065 225.68 1065 225 C1064.34 225 1063.68 225 1063 225 C1063 224.34 1063 223.68 1063 223 C1062.34 223 1061.68 223 1061 223 C1061 222.34 1061 221.68 1061 221 C1060.34 221 1059.68 221 1059 221 C1059 220.34 1059 219.68 1059 219 C1058.34 219 1057.68 219 1057 219 C1057 218.34 1057 217.68 1057 217 C1056.34 217 1055.68 217 1055 217 C1055 216.34 1055 215.68 1055 215 C1054.34 215 1053.68 215 1053 215 C1053 214.34 1053 213.68 1053 213 C1052.34 213 1051.68 213 1051 213 C1051 212.34 1051 211.68 1051 211 C1050.34 211 1049.68 211 1049 211 C1049 210.34 1049 209.68 1049 209 C1048.34 209 1047.68 209 1047 209 C1047 208.34 1047 207.68 1047 207 C1046.34 207 1045.68 207 1045 207 C1045 206.34 1045 205.68 1045 205 C1044.34 205 1043.68 205 1043 205 C1043 204.34 1043 203.68 1043 203 C1042.34 203 1041.68 203 1041 203 C1041 202.34 1041 201.68 1041 201 C1040.34 201 1039.68 201 1039 201 C1039 200.34 1039 199.68 1039 199 C1038.34 199 1037.68 199 1037 199 C1037 198.34 1037 197.68 1037 197 C1036.34 197 1035.68 197 1035 197 C1035 196.34 1035 195.68 1035 195 C1034.34 195 1033.68 195 1033 195 C1033 194.34 1033 193.68 1033 193 C1032.34 193 1031.68 193 1031 193 C1031 192.34 1031 191.68 1031 191 C1030.34 191 1029.68 191 1029 191 C1029 190.34 1029 189.68 1029 189 C1028.34 189 1027.68 189 1027 189 C1027 188.34 1027 187.68 1027 187 C1025.68 187 1024.36 187 1023 187 C1023 186.34 1023 185.68 1023 185 C1022.34 185 1021.68 185 1021 185 C1021 184.34 1021 183.68 1021 183 C1020.34 183 1019.68 183 1019 183 C1019 182.34 1019 181.68 1019 181 C1018.34 181 1017.68 181 1017 181 C1017 180.34 1017 179.68 1017 179 C1016.34 179 1015.68 179 1015 179 C1015 178.34 1015 177.68 1015 177 C1014.34 177 1013.68 177 1013 177 C1013 176.34 1013 175.68 1013 175 C1012.34 175 1011.68 175 1011 175 C1011 174.34 1011 173.68 1011 173 C1009.68 173 1008.36 173 1007 173 C1007 172.34 1007 171.68 1007 171 C1006.34 171 1005.68 171 1005 171 C1005 170.34 1005 169.68 1005 169 C1004.34 169 1003.68 169 1003 169 C1003 168.34 1003 167.68 1003 167 C1002.34 167 1001.68 167 1001 167 C1001 166.34 1001 165.68 1001 165 C999.68 165 998.36 165 997 165 C997 164.34 997 163.68 997 163 C996.34 163 995.68 163 995 163 C995 162.34 995 161.68 995 161 C994.34 161 993.68 161 993 161 C993 160.34 993 159.68 993 159 C991.68 159 990.36 159 989 159 C989 158.34 989 157.68 989 157 C988.34 157 987.68 157 987 157 C987 156.34 987 155.68 987 155 C986.34 155 985.68 155 985 155 C985 154.34 985 153.68 985 153 C984.34 153 983.68 153 983 153 C983 152.34 983 151.68 983 151 C981.68 151 980.36 151 979 151 C979 150.34 979 149.68 979 149 C978.34 149 977.68 149 977 149 C977 148.34 977 147.68 977 147 C975.68 147 974.36 147 973 147 C973 146.34 973 145.68 973 145 C972.34 145 971.68 145 971 145 C971 144.34 971 143.68 971 143 C970.34 143 969.68 143 969 143 C969 142.34 969 141.68 969 141 C967.68 141 966.36 141 965 141 C965 140.34 965 139.68 965 139 C964.34 139 963.68 139 963 139 C963 138.34 963 137.68 963 137 C961.68 137 960.36 137 959 137 C959 136.34 959 135.68 959 135 C958.34 135 957.68 135 957 135 C957 134.34 957 133.68 957 133 C955.68 133 954.36 133 953 133 C953 132.34 953 131.68 953 131 C951.68 131 950.36 131 949 131 C949 130.34 949 129.68 949 129 C948.34 129 947.68 129 947 129 C947 128.34 947 127.68 947 127 C945.68 127 944.36 127 943 127 C943 126.34 943 125.68 943 125 C942.34 125 941.68 125 941 125 C941 124.34 941 123.68 941 123 C939.68 123 938.36 123 937 123 C937 122.34 937 121.68 937 121 C935.68 121 934.36 121 933 121 C933 120.34 933 119.68 933 119 C932.34 119 931.68 119 931 119 C931 118.34 931 117.68 931 117 C929.68 117 928.36 117 927 117 C927 116.34 927 115.68 927 115 C925.68 115 924.36 115 923 115 C923 114.34 923 113.68 923 113 C922.34 113 921.68 113 921 113 C921 112.34 921 111.68 921 111 C919.68 111 918.36 111 917 111 C917 110.34 917 109.68 917 109 C915.68 109 914.36 109 913 109 C913 108.34 913 107.68 913 107 C911.68 107 910.36 107 909 107 C909 106.34 909 105.68 909 105 C907.68 105 906.36 105 905 105 C905 104.34 905 103.68 905 103 C903.68 103 902.36 103 901 103 C901 102.34 901 101.68 901 101 C899.68 101 898.36 101 897 101 C897 100.34 897 99.68 897 99 C895.68 99 894.36 99 893 99 C893 98.34 893 97.68 893 97 C891.68 97 890.36 97 889 97 C889 96.34 889 95.68 889 95 C887.68 95 886.36 95 885 95 C885 94.34 885 93.68 885 93 C883.68 93 882.36 93 881 93 C881 92.34 881 91.68 881 91 C879.68 91 878.36 91 877 91 C877 90.34 877 89.68 877 89 C875.68 89 874.36 89 873 89 C873 88.34 873 87.68 873 87 C871.02 87 869.04 87 867 87 C867 86.34 867 85.68 867 85 C865.68 85 864.36 85 863 85 C863 84.34 863 83.68 863 83 C861.68 83 860.36 83 859 83 C859 82.34 859 81.68 859 81 C857.02 81 855.04 81 853 81 C853 80.34 853 79.68 853 79 C851.68 79 850.36 79 849 79 C849 78.34 849 77.68 849 77 C847.02 77 845.04 77 843 77 C843 76.34 843 75.68 843 75 C841.68 75 840.36 75 839 75 C839 74.34 839 73.68 839 73 C837.02 73 835.04 73 833 73 C833 72.34 833 71.68 833 71 C831.02 71 829.04 71 827 71 C827 70.34 827 69.68 827 69 C825.02 69 823.04 69 821 69 C821 68.34 821 67.68 821 67 C819.02 67 817.04 67 815 67 C815 66.34 815 65.68 815 65 C813.02 65 811.04 65 809 65 C809 64.34 809 63.68 809 63 C806.36 63 803.72 63 801 63 C801 62.34 801 61.68 801 61 C799.02 61 797.04 61 795 61 C795 60.34 795 59.68 795 59 C793.68 59 792.36 59 791 59 C791 58.34 791 57.68 791 57 C788.36 57 785.72 57 783 57 C783 56.34 783 55.68 783 55 C780.36 55 777.72 55 775 55 C775 54.34 775 53.68 775 53 C772.36 53 769.72 53 767 53 C767 52.34 767 51.68 767 51 C763.7 51 760.4 51 757 51 C757 50.34 757 49.68 757 49 C754.36 49 751.72 49 749 49 C749 48.34 749 47.68 749 47 C745.7 47 742.4 47 739 47 C739 46.34 739 45.68 739 45 C735.7 45 732.4 45 729 45 C729 44.34 729 43.68 729 43 C725.7 43 722.4 43 719 43 C719 42.34 719 41.68 719 41 C712.4 41 705.8 41 699 41 C699 40.34 699 39.68 699 39 C696.36 39 693.72 39 691 39 C691 38.34 691 37.68 691 37 C684.4 37 677.8 37 671 37 C671 36.34 671 35.68 671 35 C647.9 35 624.8 35 601 35 Z " fill="#FEFEFE" transform="translate(0,0)"/>
<path d="M0 0 C1.32 0 2.64 0 4 0 C4 0.66 4 1.32 4 2 C6.64 2 9.28 2 12 2 C12 2.66 12 3.32 12 4 C13.98 4 15.96 4 18 4 C18 4.66 18 5.32 18 6 C20.64 6 23.28 6 26 6 C26 6.66 26 7.32 26 8 C28.64 8 31.28 8 34 8 C34 8.66 34 9.32 34 10 C36.64 10 39.28 10 42 10 C42 10.66 42 11.32 42 12 C44.64 12 47.28 12 50 12 C50 12.66 50 13.32 50 14 C52.64 14 55.28 14 58 14 C58 14.66 58 15.32 58 16 C59.98 16 61.96 16 64 16 C64 16.66 64 17.32 64 18 C66.64 18 69.28 18 72 18 C72 20.64 72 23.28 72 26 C71.34 26 70.68 26 70 26 C70 28.64 70 31.28 70 34 C69.34 34 68.68 34 68 34 C68 36.64 68 39.28 68 42 C67.34 42 66.68 42 66 42 C66 44.64 66 47.28 66 50 C65.34 50 64.68 50 64 50 C64 52.64 64 55.28 64 58 C63.34 58 62.68 58 62 58 C62 59.98 62 61.96 62 64 C61.34 64 60.68 64 60 64 C60 65.98 60 67.96 60 70 C59.34 70 58.68 70 58 70 C58 73.3 58 76.6 58 80 C57.34 80 56.68 80 56 80 C56 81.98 56 83.96 56 86 C55.34 86 54.68 86 54 86 C54 87.98 54 89.96 54 92 C53.34 92 52.68 92 52 92 C52 95.3 52 98.6 52 102 C51.34 102 50.68 102 50 102 C50 103.98 50 105.96 50 108 C49.34 108 48.68 108 48 108 C48 111.3 48 114.6 48 118 C47.34 118 46.68 118 46 118 C46 119.98 46 121.96 46 124 C45.34 124 44.68 124 44 124 C44 125.98 44 127.96 44 130 C43.34 130 42.68 130 42 130 C42 133.3 42 136.6 42 140 C42.66 140 43.32 140 44 140 C44 140.66 44 141.32 44 142 C45.98 142 47.96 142 50 142 C50 142.66 50 143.32 50 144 C54.62 144 59.24 144 64 144 C64 144.66 64 145.32 64 146 C65.98 146 67.96 146 70 146 C70 146.66 70 147.32 70 148 C73.96 148 77.92 148 82 148 C82 148.66 82 149.32 82 150 C84.64 150 87.28 150 90 150 C90 150.66 90 151.32 90 152 C94.62 152 99.24 152 104 152 C104 149.36 104 146.72 104 144 C104.66 144 105.32 144 106 144 C106 142.02 106 140.04 106 138 C106.66 138 107.32 138 108 138 C108 134.04 108 130.08 108 126 C108.66 126 109.32 126 110 126 C110 124.02 110 122.04 110 120 C110.66 120 111.32 120 112 120 C112 116.7 112 113.4 112 110 C112.66 110 113.32 110 114 110 C114 108.02 114 106.04 114 104 C114.66 104 115.32 104 116 104 C116 101.36 116 98.72 116 96 C116.66 96 117.32 96 118 96 C118 92.7 118 89.4 118 86 C118.66 86 119.32 86 120 86 C120 84.68 120 83.36 120 82 C120.66 82 121.32 82 122 82 C122 78.04 122 74.08 122 70 C122.66 70 123.32 70 124 70 C124 67.36 124 64.72 124 62 C124.66 62 125.32 62 126 62 C126 60.02 126 58.04 126 56 C126.66 56 127.32 56 128 56 C128 52.7 128 49.4 128 46 C128.66 46 129.32 46 130 46 C130 44.02 130 42.04 130 40 C130.66 40 131.32 40 132 40 C132 38.02 132 36.04 132 34 C134.64 34 137.28 34 140 34 C140 34.66 140 35.32 140 36 C141.98 36 143.96 36 146 36 C146 36.66 146 37.32 146 38 C149.3 38 152.6 38 156 38 C156 38.66 156 39.32 156 40 C157.98 40 159.96 40 162 40 C162 40.66 162 41.32 162 42 C163.98 42 165.96 42 168 42 C168 42.66 168 43.32 168 44 C170.64 44 173.28 44 176 44 C176 44.66 176 45.32 176 46 C177.98 46 179.96 46 182 46 C182 46.66 182 47.32 182 48 C185.3 48 188.6 48 192 48 C192 48.66 192 49.32 192 50 C193.32 50 194.64 50 196 50 C196 50.66 196 51.32 196 52 C199.3 52 202.6 52 206 52 C206 52.66 206 53.32 206 54 C206.66 54 207.32 54 208 54 C208 55.32 208 56.64 208 58 C207.34 58 206.68 58 206 58 C206 59.98 206 61.96 206 64 C205.34 64 204.68 64 204 64 C204 67.3 204 70.6 204 74 C203.34 74 202.68 74 202 74 C202 76.64 202 79.28 202 82 C201.34 82 200.68 82 200 82 C200 83.98 200 85.96 200 88 C199.34 88 198.68 88 198 88 C198 90.64 198 93.28 198 96 C197.34 96 196.68 96 196 96 C196 98.64 196 101.28 196 104 C195.34 104 194.68 104 194 104 C194 105.98 194 107.96 194 110 C193.34 110 192.68 110 192 110 C192 113.3 192 116.6 192 120 C191.34 120 190.68 120 190 120 C190 121.98 190 123.96 190 126 C189.34 126 188.68 126 188 126 C188 128.64 188 131.28 188 134 C187.34 134 186.68 134 186 134 C186 136.64 186 139.28 186 142 C185.34 142 184.68 142 184 142 C184 143.98 184 145.96 184 148 C183.34 148 182.68 148 182 148 C182 151.3 182 154.6 182 158 C181.34 158 180.68 158 180 158 C180 159.98 180 161.96 180 164 C179.34 164 178.68 164 178 164 C178 165.98 178 167.96 178 170 C177.34 170 176.68 170 176 170 C176 172.64 176 175.28 176 178 C176.66 178 177.32 178 178 178 C178 178.66 178 179.32 178 180 C179.98 180 181.96 180 184 180 C184 180.66 184 181.32 184 182 C185.98 182 187.96 182 190 182 C190 182.66 190 183.32 190 184 C191.98 184 193.96 184 196 184 C196 184.66 196 185.32 196 186 C197.32 186 198.64 186 200 186 C200 186.66 200 187.32 200 188 C201.98 188 203.96 188 206 188 C206 188.66 206 189.32 206 190 C207.98 190 209.96 190 212 190 C212 190.66 212 191.32 212 192 C213.32 192 214.64 192 216 192 C216 192.66 216 193.32 216 194 C217.98 194 219.96 194 222 194 C222 194.66 222 195.32 222 196 C223.32 196 224.64 196 226 196 C226 196.66 226 197.32 226 198 C227.32 198 228.64 198 230 198 C230 198.66 230 199.32 230 200 C231.32 200 232.64 200 234 200 C234 200.66 234 201.32 234 202 C235.98 202 237.96 202 240 202 C240 202.66 240 203.32 240 204 C241.32 204 242.64 204 244 204 C244 204.66 244 205.32 244 206 C244.66 206 245.32 206 246 206 C246 206.66 246 207.32 246 208 C247.98 208 249.96 208 252 208 C252 208.66 252 209.32 252 210 C252.66 210 253.32 210 254 210 C254 210.66 254 211.32 254 212 C255.32 212 256.64 212 258 212 C258 212.66 258 213.32 258 214 C259.32 214 260.64 214 262 214 C262 214.66 262 215.32 262 216 C262.66 216 263.32 216 264 216 C264 216.66 264 217.32 264 218 C265.32 218 266.64 218 268 218 C268 218.66 268 219.32 268 220 C269.32 220 270.64 220 272 220 C272 220.66 272 221.32 272 222 C272.66 222 273.32 222 274 222 C274 222.66 274 223.32 274 224 C275.32 224 276.64 224 278 224 C278 224.66 278 225.32 278 226 C278.66 226 279.32 226 280 226 C280 226.66 280 227.32 280 228 C280.66 228 281.32 228 282 228 C282 228.66 282 229.32 282 230 C283.32 230 284.64 230 286 230 C286 230.66 286 231.32 286 232 C286.66 232 287.32 232 288 232 C288 232.66 288 233.32 288 234 C288.66 234 289.32 234 290 234 C290 234.66 290 235.32 290 236 C290.66 236 291.32 236 292 236 C292 236.66 292 237.32 292 238 C292.66 238 293.32 238 294 238 C294 238.66 294 239.32 294 240 C294.66 240 295.32 240 296 240 C296 240.66 296 241.32 296 242 C297.32 242 298.64 242 300 242 C300 242.66 300 243.32 300 244 C300.66 244 301.32 244 302 244 C302 244.66 302 245.32 302 246 C302.66 246 303.32 246 304 246 C304 246.66 304 247.32 304 248 C304.66 248 305.32 248 306 248 C306 249.32 306 250.64 306 252 C306.66 252 307.32 252 308 252 C308 252.66 308 253.32 308 254 C308.66 254 309.32 254 310 254 C310 254.66 310 255.32 310 256 C310.66 256 311.32 256 312 256 C312 256.66 312 257.32 312 258 C312.66 258 313.32 258 314 258 C314 259.32 314 260.64 314 262 C314.66 262 315.32 262 316 262 C316 262.66 316 263.32 316 264 C316.66 264 317.32 264 318 264 C318 265.32 318 266.64 318 268 C318.66 268 319.32 268 320 268 C320 268.66 320 269.32 320 270 C320.66 270 321.32 270 322 270 C322 271.32 322 272.64 322 274 C322.66 274 323.32 274 324 274 C324 275.32 324 276.64 324 278 C324.66 278 325.32 278 326 278 C326 279.32 326 280.64 326 282 C326.66 282 327.32 282 328 282 C328 283.98 328 285.96 328 288 C328.66 288 329.32 288 330 288 C330 289.32 330 290.64 330 292 C330.66 292 331.32 292 332 292 C332 295.3 332 298.6 332 302 C332.66 302 333.32 302 334 302 C334 304.64 334 307.28 334 310 C334.66 310 335.32 310 336 310 C336 322.54 336 335.08 336 348 C335.34 348 334.68 348 334 348 C334 351.96 334 355.92 334 360 C333.34 360 332.68 360 332 360 C332 363.96 332 367.92 332 372 C331.34 372 330.68 372 330 372 C330 373.98 330 375.96 330 378 C329.34 378 328.68 378 328 378 C328 380.64 328 383.28 328 386 C327.34 386 326.68 386 326 386 C326 387.32 326 388.64 326 390 C325.34 390 324.68 390 324 390 C324 391.32 324 392.64 324 394 C323.34 394 322.68 394 322 394 C322 395.98 322 397.96 322 400 C321.34 400 320.68 400 320 400 C320 401.32 320 402.64 320 404 C319.34 404 318.68 404 318 404 C318 405.32 318 406.64 318 408 C317.34 408 316.68 408 316 408 C316 408.66 316 409.32 316 410 C315.34 410 314.68 410 314 410 C314 411.32 314 412.64 314 414 C313.34 414 312.68 414 312 414 C312 415.32 312 416.64 312 418 C311.34 418 310.68 418 310 418 C310 418.66 310 419.32 310 420 C309.34 420 308.68 420 308 420 C308 420.66 308 421.32 308 422 C307.34 422 306.68 422 306 422 C306 422.66 306 423.32 306 424 C305.34 424 304.68 424 304 424 C304 424.66 304 425.32 304 426 C303.34 426 302.68 426 302 426 C302 427.32 302 428.64 302 430 C301.34 430 300.68 430 300 430 C300 430.66 300 431.32 300 432 C299.34 432 298.68 432 298 432 C298 432.66 298 433.32 298 434 C297.34 434 296.68 434 296 434 C296 434.66 296 435.32 296 436 C294.68 436 293.36 436 292 436 C292 436.66 292 437.32 292 438 C291.34 438 290.68 438 290 438 C290 438.66 290 439.32 290 440 C289.34 440 288.68 440 288 440 C288 440.66 288 441.32 288 442 C287.34 442 286.68 442 286 442 C286 442.66 286 443.32 286 444 C284.68 444 283.36 444 282 444 C282 444.66 282 445.32 282 446 C280.68 446 279.36 446 278 446 C278 446.66 278 447.32 278 448 C277.34 448 276.68 448 276 448 C276 448.66 276 449.32 276 450 C274.68 450 273.36 450 272 450 C272 450.66 272 451.32 272 452 C270.68 452 269.36 452 268 452 C268 452.66 268 453.32 268 454 C266.68 454 265.36 454 264 454 C264 454.66 264 455.32 264 456 C262.02 456 260.04 456 258 456 C258 456.66 258 457.32 258 458 C256.02 458 254.04 458 252 458 C252 458.66 252 459.32 252 460 C250.02 460 248.04 460 246 460 C246 460.66 246 461.32 246 462 C243.36 462 240.72 462 238 462 C238 462.66 238 463.32 238 464 C238.66 464 239.32 464 240 464 C240 464.66 240 465.32 240 466 C241.98 466 243.96 466 246 466 C246 466.66 246 467.32 246 468 C246.66 468 247.32 468 248 468 C248 468.66 248 469.32 248 470 C249.32 470 250.64 470 252 470 C252 470.66 252 471.32 252 472 C253.32 472 254.64 472 256 472 C256 472.66 256 473.32 256 474 C256.66 474 257.32 474 258 474 C258 474.66 258 475.32 258 476 C259.32 476 260.64 476 262 476 C262 476.66 262 477.32 262 478 C263.32 478 264.64 478 266 478 C266 478.66 266 479.32 266 480 C266.66 480 267.32 480 268 480 C268 480.66 268 481.32 268 482 C268.66 482 269.32 482 270 482 C270 482.66 270 483.32 270 484 C271.32 484 272.64 484 274 484 C274 484.66 274 485.32 274 486 C274.66 486 275.32 486 276 486 C276 486.66 276 487.32 276 488 C276.66 488 277.32 488 278 488 C278 488.66 278 489.32 278 490 C278.66 490 279.32 490 280 490 C280 490.66 280 491.32 280 492 C281.32 492 282.64 492 284 492 C284 492.66 284 493.32 284 494 C284.66 494 285.32 494 286 494 C286 494.66 286 495.32 286 496 C286.66 496 287.32 496 288 496 C288 496.66 288 497.32 288 498 C288.66 498 289.32 498 290 498 C290 498.66 290 499.32 290 500 C290.66 500 291.32 500 292 500 C292 501.32 292 502.64 292 504 C292.66 504 293.32 504 294 504 C294 504.66 294 505.32 294 506 C294.66 506 295.32 506 296 506 C296 506.66 296 507.32 296 508 C296.66 508 297.32 508 298 508 C298 508.66 298 509.32 298 510 C298.66 510 299.32 510 300 510 C300 510.66 300 511.32 300 512 C300.66 512 301.32 512 302 512 C302 513.32 302 514.64 302 516 C302.66 516 303.32 516 304 516 C304 516.66 304 517.32 304 518 C304.66 518 305.32 518 306 518 C306 519.32 306 520.64 306 522 C306.66 522 307.32 522 308 522 C308 523.32 308 524.64 308 526 C308.66 526 309.32 526 310 526 C310 527.32 310 528.64 310 530 C310.66 530 311.32 530 312 530 C312 531.32 312 532.64 312 534 C312.66 534 313.32 534 314 534 C314 535.32 314 536.64 314 538 C314.66 538 315.32 538 316 538 C316 539.98 316 541.96 316 544 C316.66 544 317.32 544 318 544 C318 546.64 318 549.28 318 552 C318.66 552 319.32 552 320 552 C320 554.64 320 557.28 320 560 C320.66 560 321.32 560 322 560 C322 571.22 322 582.44 322 594 C321.34 594 320.68 594 320 594 C320 598.62 320 603.24 320 608 C319.34 608 318.68 608 318 608 C318 609.98 318 611.96 318 614 C317.34 614 316.68 614 316 614 C316 617.96 316 621.92 316 626 C315.34 626 314.68 626 314 626 C314 627.98 314 629.96 314 632 C313.34 632 312.68 632 312 632 C312 633.98 312 635.96 312 638 C311.34 638 310.68 638 310 638 C310 639.98 310 641.96 310 644 C309.34 644 308.68 644 308 644 C308 645.98 308 647.96 308 650 C307.34 650 306.68 650 306 650 C306 651.98 306 653.96 306 656 C305.34 656 304.68 656 304 656 C304 657.32 304 658.64 304 660 C303.34 660 302.68 660 302 660 C302 661.98 302 663.96 302 666 C301.34 666 300.68 666 300 666 C300 667.32 300 668.64 300 670 C299.34 670 298.68 670 298 670 C298 671.32 298 672.64 298 674 C297.34 674 296.68 674 296 674 C296 675.98 296 677.96 296 680 C295.34 680 294.68 680 294 680 C294 680.66 294 681.32 294 682 C293.34 682 292.68 682 292 682 C292 683.32 292 684.64 292 686 C291.34 686 290.68 686 290 686 C290 687.32 290 688.64 290 690 C289.34 690 288.68 690 288 690 C288 690.66 288 691.32 288 692 C287.34 692 286.68 692 286 692 C286 693.32 286 694.64 286 696 C285.34 696 284.68 696 284 696 C284 696.66 284 697.32 284 698 C283.34 698 282.68 698 282 698 C282 699.32 282 700.64 282 702 C281.34 702 280.68 702 280 702 C280 702.66 280 703.32 280 704 C279.34 704 278.68 704 278 704 C278 704.66 278 705.32 278 706 C277.34 706 276.68 706 276 706 C276 707.32 276 708.64 276 710 C275.34 710 274.68 710 274 710 C274 710.66 274 711.32 274 712 C273.34 712 272.68 712 272 712 C272 712.66 272 713.32 272 714 C271.34 714 270.68 714 270 714 C270 714.66 270 715.32 270 716 C269.34 716 268.68 716 268 716 C268 716.66 268 717.32 268 718 C267.34 718 266.68 718 266 718 C266 718.66 266 719.32 266 720 C265.34 720 264.68 720 264 720 C264 720.66 264 721.32 264 722 C263.34 722 262.68 722 262 722 C262 722.66 262 723.32 262 724 C261.34 724 260.68 724 260 724 C260 724.66 260 725.32 260 726 C258.68 726 257.36 726 256 726 C256 726.66 256 727.32 256 728 C255.34 728 254.68 728 254 728 C254 728.66 254 729.32 254 730 C253.34 730 252.68 730 252 730 C252 730.66 252 731.32 252 732 C251.34 732 250.68 732 250 732 C250 732.66 250 733.32 250 734 C248.68 734 247.36 734 246 734 C246 734.66 246 735.32 246 736 C244.68 736 243.36 736 242 736 C242 736.66 242 737.32 242 738 C241.34 738 240.68 738 240 738 C240 738.66 240 739.32 240 740 C238.68 740 237.36 740 236 740 C236 740.66 236 741.32 236 742 C234.68 742 233.36 742 232 742 C232 742.66 232 743.32 232 744 C230.68 744 229.36 744 228 744 C228 744.66 228 745.32 228 746 C226.68 746 225.36 746 224 746 C224 746.66 224 747.32 224 748 C222.02 748 220.04 748 218 748 C218 748.66 218 749.32 218 750 C216.68 750 215.36 750 214 750 C214 750.66 214 751.32 214 752 C212.02 752 210.04 752 208 752 C208 752.66 208 753.32 208 754 C205.36 754 202.72 754 200 754 C200 754.66 200 755.32 200 756 C197.36 756 194.72 756 192 756 C192 756.66 192 757.32 192 758 C190.02 758 188.04 758 186 758 C186 758.66 186 759.32 186 760 C180.06 760 174.12 760 168 760 C168 760.66 168 761.32 168 762 C142.26 762 116.52 762 90 762 C90 761.34 90 760.68 90 760 C83.4 760 76.8 760 70 760 C70 759.34 70 758.68 70 758 C66.7 758 63.4 758 60 758 C60 757.34 60 756.68 60 756 C55.38 756 50.76 756 46 756 C46 755.34 46 754.68 46 754 C43.36 754 40.72 754 38 754 C38 755.32 38 756.64 38 758 C37.34 758 36.68 758 36 758 C36 759.98 36 761.96 36 764 C35.34 764 34.68 764 34 764 C34 765.98 34 767.96 34 770 C33.34 770 32.68 770 32 770 C32 772.64 32 775.28 32 778 C31.34 778 30.68 778 30 778 C30 779.98 30 781.96 30 784 C29.34 784 28.68 784 28 784 C28 787.3 28 790.6 28 794 C27.34 794 26.68 794 26 794 C26 795.98 26 797.96 26 800 C25.34 800 24.68 800 24 800 C24 801.98 24 803.96 24 806 C23.34 806 22.68 806 22 806 C22 809.3 22 812.6 22 816 C21.34 816 20.68 816 20 816 C20 817.98 20 819.96 20 822 C19.34 822 18.68 822 18 822 C18 824.64 18 827.28 18 830 C17.34 830 16.68 830 16 830 C16 831.98 16 833.96 16 836 C15.34 836 14.68 836 14 836 C14 837.98 14 839.96 14 842 C13.34 842 12.68 842 12 842 C12 845.3 12 848.6 12 852 C11.34 852 10.68 852 10 852 C10 853.98 10 855.96 10 858 C9.34 858 8.68 858 8 858 C8 861.3 8 864.6 8 868 C7.34 868 6.68 868 6 868 C6 869.32 6 870.64 6 872 C5.34 872 4.68 872 4 872 C4 873.98 4 875.96 4 878 C0.04 878 -3.92 878 -8 878 C-8 877.34 -8 876.68 -8 876 C-9.32 876 -10.64 876 -12 876 C-12 875.34 -12 874.68 -12 874 C-14.64 874 -17.28 874 -20 874 C-20 873.34 -20 872.68 -20 872 C-21.98 872 -23.96 872 -26 872 C-26 871.34 -26 870.68 -26 870 C-27.98 870 -29.96 870 -32 870 C-32 869.34 -32 868.68 -32 868 C-33.98 868 -35.96 868 -38 868 C-38 867.34 -38 866.68 -38 866 C-39.98 866 -41.96 866 -44 866 C-44 865.34 -44 864.68 -44 864 C-45.32 864 -46.64 864 -48 864 C-48 863.34 -48 862.68 -48 862 C-50.64 862 -53.28 862 -56 862 C-56 861.34 -56 860.68 -56 860 C-57.32 860 -58.64 860 -60 860 C-60 859.34 -60 858.68 -60 858 C-63.3 858 -66.6 858 -70 858 C-70 857.34 -70 856.68 -70 856 C-70.66 856 -71.32 856 -72 856 C-72 853.36 -72 850.72 -72 848 C-71.34 848 -70.68 848 -70 848 C-70 846.02 -70 844.04 -70 842 C-69.34 842 -68.68 842 -68 842 C-68 840.02 -68 838.04 -68 836 C-67.34 836 -66.68 836 -66 836 C-66 832.7 -66 829.4 -66 826 C-65.34 826 -64.68 826 -64 826 C-64 824.68 -64 823.36 -64 822 C-63.34 822 -62.68 822 -62 822 C-62 818.04 -62 814.08 -62 810 C-61.34 810 -60.68 810 -60 810 C-60 808.02 -60 806.04 -60 804 C-59.34 804 -58.68 804 -58 804 C-58 802.02 -58 800.04 -58 798 C-57.34 798 -56.68 798 -56 798 C-56 794.7 -56 791.4 -56 788 C-55.34 788 -54.68 788 -54 788 C-54 786.68 -54 785.36 -54 784 C-53.34 784 -52.68 784 -52 784 C-52 780.04 -52 776.08 -52 772 C-51.34 772 -50.68 772 -50 772 C-50 770.02 -50 768.04 -50 766 C-49.34 766 -48.68 766 -48 766 C-48 762.7 -48 759.4 -48 756 C-47.34 756 -46.68 756 -46 756 C-46 754.02 -46 752.04 -46 750 C-45.34 750 -44.68 750 -44 750 C-44 747.36 -44 744.72 -44 742 C-43.34 742 -42.68 742 -42 742 C-42 739.36 -42 736.72 -42 734 C-41.34 734 -40.68 734 -40 734 C-40 733.34 -40 732.68 -40 732 C-40.66 732 -41.32 732 -42 732 C-42 731.34 -42 730.68 -42 730 C-45.3 730 -48.6 730 -52 730 C-52 729.34 -52 728.68 -52 728 C-55.3 728 -58.6 728 -62 728 C-62 727.34 -62 726.68 -62 726 C-63.32 726 -64.64 726 -66 726 C-66 725.34 -66 724.68 -66 724 C-70.62 724 -75.24 724 -80 724 C-80 723.34 -80 722.68 -80 722 C-81.98 722 -83.96 722 -86 722 C-86 721.34 -86 720.68 -86 720 C-91.28 720 -96.56 720 -102 720 C-102 721.32 -102 722.64 -102 724 C-102.66 724 -103.32 724 -104 724 C-104 725.32 -104 726.64 -104 728 C-104.66 728 -105.32 728 -106 728 C-106 731.3 -106 734.6 -106 738 C-106.66 738 -107.32 738 -108 738 C-108 739.98 -108 741.96 -108 744 C-108.66 744 -109.32 744 -110 744 C-110 745.98 -110 747.96 -110 750 C-110.66 750 -111.32 750 -112 750 C-112 753.3 -112 756.6 -112 760 C-112.66 760 -113.32 760 -114 760 C-114 762.64 -114 765.28 -114 768 C-114.66 768 -115.32 768 -116 768 C-116 770.64 -116 773.28 -116 776 C-116.66 776 -117.32 776 -118 776 C-118 777.98 -118 779.96 -118 782 C-118.66 782 -119.32 782 -120 782 C-120 785.3 -120 788.6 -120 792 C-120.66 792 -121.32 792 -122 792 C-122 793.98 -122 795.96 -122 798 C-122.66 798 -123.32 798 -124 798 C-124 801.3 -124 804.6 -124 808 C-124.66 808 -125.32 808 -126 808 C-126 809.98 -126 811.96 -126 814 C-126.66 814 -127.32 814 -128 814 C-128 816.64 -128 819.28 -128 822 C-128.66 822 -129.32 822 -130 822 C-130 824.64 -130 827.28 -130 830 C-130.66 830 -131.32 830 -132 830 C-132 832.64 -132 835.28 -132 838 C-132.66 838 -133.32 838 -134 838 C-134 839.32 -134 840.64 -134 842 C-135.98 842 -137.96 842 -140 842 C-140 841.34 -140 840.68 -140 840 C-141.32 840 -142.64 840 -144 840 C-144 839.34 -144 838.68 -144 838 C-147.3 838 -150.6 838 -154 838 C-154 837.34 -154 836.68 -154 836 C-155.32 836 -156.64 836 -158 836 C-158 835.34 -158 834.68 -158 834 C-160.64 834 -163.28 834 -166 834 C-166 833.34 -166 832.68 -166 832 C-168.64 832 -171.28 832 -174 832 C-174 831.34 -174 830.68 -174 830 C-176.64 830 -179.28 830 -182 830 C-182 829.34 -182 828.68 -182 828 C-184.64 828 -187.28 828 -190 828 C-190 827.34 -190 826.68 -190 826 C-191.98 826 -193.96 826 -196 826 C-196 825.34 -196 824.68 -196 824 C-198.64 824 -201.28 824 -204 824 C-204 823.34 -204 822.68 -204 822 C-205.98 822 -207.96 822 -210 822 C-210 820.02 -210 818.04 -210 816 C-209.34 816 -208.68 816 -208 816 C-208 814.02 -208 812.04 -208 810 C-207.34 810 -206.68 810 -206 810 C-206 806.7 -206 803.4 -206 800 C-205.34 800 -204.68 800 -204 800 C-204 798.68 -204 797.36 -204 796 C-203.34 796 -202.68 796 -202 796 C-202 792.04 -202 788.08 -202 784 C-201.34 784 -200.68 784 -200 784 C-200 782.02 -200 780.04 -200 778 C-199.34 778 -198.68 778 -198 778 C-198 776.02 -198 774.04 -198 772 C-197.34 772 -196.68 772 -196 772 C-196 768.04 -196 764.08 -196 760 C-195.34 760 -194.68 760 -194 760 C-194 758.02 -194 756.04 -194 754 C-193.34 754 -192.68 754 -192 754 C-192 752.02 -192 750.04 -192 748 C-191.34 748 -190.68 748 -190 748 C-190 744.7 -190 741.4 -190 738 C-189.34 738 -188.68 738 -188 738 C-188 735.36 -188 732.72 -188 730 C-187.34 730 -186.68 730 -186 730 C-186 727.36 -186 724.72 -186 722 C-185.34 722 -184.68 722 -184 722 C-184 720.68 -184 719.36 -184 718 C-183.34 718 -182.68 718 -182 718 C-182 714.04 -182 710.08 -182 706 C-181.34 706 -180.68 706 -180 706 C-180 704.02 -180 702.04 -180 700 C-179.34 700 -178.68 700 -178 700 C-178 698.02 -178 696.04 -178 694 C-179.98 694 -181.96 694 -184 694 C-184 693.34 -184 692.68 -184 692 C-185.98 692 -187.96 692 -190 692 C-190 691.34 -190 690.68 -190 690 C-193.3 690 -196.6 690 -200 690 C-200 689.34 -200 688.68 -200 688 C-202.64 688 -205.28 688 -208 688 C-208 687.34 -208 686.68 -208 686 C-209.98 686 -211.96 686 -214 686 C-214 685.34 -214 684.68 -214 684 C-217.96 684 -221.92 684 -226 684 C-226 683.34 -226 682.68 -226 682 C-227.98 682 -229.96 682 -232 682 C-232 681.34 -232 680.68 -232 680 C-234.64 680 -237.28 680 -240 680 C-240 679.34 -240 678.68 -240 678 C-241.98 678 -243.96 678 -246 678 C-246 677.34 -246 676.68 -246 676 C-247.98 676 -249.96 676 -252 676 C-252 675.34 -252 674.68 -252 674 C-255.3 674 -258.6 674 -262 674 C-262 673.34 -262 672.68 -262 672 C-263.98 672 -265.96 672 -268 672 C-268 671.34 -268 670.68 -268 670 C-270.64 670 -273.28 670 -276 670 C-276 669.34 -276 668.68 -276 668 C-277.98 668 -279.96 668 -282 668 C-282 667.34 -282 666.68 -282 666 C-283.98 666 -285.96 666 -288 666 C-288 665.34 -288 664.68 -288 664 C-291.3 664 -294.6 664 -298 664 C-298 663.34 -298 662.68 -298 662 C-299.98 662 -301.96 662 -304 662 C-304 661.34 -304 660.68 -304 660 C-306.64 660 -309.28 660 -312 660 C-312 659.34 -312 658.68 -312 658 C-313.98 658 -315.96 658 -318 658 C-318 657.34 -318 656.68 -318 656 C-319.98 656 -321.96 656 -324 656 C-324 655.34 -324 654.68 -324 654 C-325.32 654 -326.64 654 -328 654 C-328 652.68 -328 651.36 -328 650 C-327.34 650 -326.68 650 -326 650 C-326 648.68 -326 647.36 -326 646 C-325.34 646 -324.68 646 -324 646 C-324 644.68 -324 643.36 -324 642 C-323.34 642 -322.68 642 -322 642 C-322 640.02 -322 638.04 -322 636 C-321.34 636 -320.68 636 -320 636 C-320 634.68 -320 633.36 -320 632 C-319.34 632 -318.68 632 -318 632 C-318 630.68 -318 629.36 -318 628 C-317.34 628 -316.68 628 -316 628 C-316 626.02 -316 624.04 -316 622 C-315.34 622 -314.68 622 -314 622 C-314 620.68 -314 619.36 -314 618 C-313.34 618 -312.68 618 -312 618 C-312 616.68 -312 615.36 -312 614 C-311.34 614 -310.68 614 -310 614 C-310 612.68 -310 611.36 -310 610 C-309.34 610 -308.68 610 -308 610 C-308 608.02 -308 606.04 -308 604 C-307.34 604 -306.68 604 -306 604 C-306 602.68 -306 601.36 -306 600 C-305.34 600 -304.68 600 -304 600 C-304 598.68 -304 597.36 -304 596 C-303.34 596 -302.68 596 -302 596 C-302 594.02 -302 592.04 -302 590 C-301.34 590 -300.68 590 -300 590 C-300 588.68 -300 587.36 -300 586 C-299.34 586 -298.68 586 -298 586 C-298 584.68 -298 583.36 -298 582 C-297.34 582 -296.68 582 -296 582 C-296 580.02 -296 578.04 -296 576 C-295.34 576 -294.68 576 -294 576 C-294 575.34 -294 574.68 -294 574 C-293.34 574 -292.68 574 -292 574 C-292 572.02 -292 570.04 -292 568 C-290.02 568 -288.04 568 -286 568 C-286 568.66 -286 569.32 -286 570 C-283.36 570 -280.72 570 -278 570 C-278 570.66 -278 571.32 -278 572 C-276.02 572 -274.04 572 -272 572 C-272 572.66 -272 573.32 -272 574 C-268.7 574 -265.4 574 -262 574 C-262 574.66 -262 575.32 -262 576 C-259.36 576 -256.72 576 -254 576 C-254 576.66 -254 577.32 -254 578 C-252.02 578 -250.04 578 -248 578 C-248 578.66 -248 579.32 -248 580 C-244.7 580 -241.4 580 -238 580 C-238 580.66 -238 581.32 -238 582 C-231.4 582 -224.8 582 -218 582 C-218 581.34 -218 580.68 -218 580 C-216.68 580 -215.36 580 -214 580 C-214 579.34 -214 578.68 -214 578 C-212.68 578 -211.36 578 -210 578 C-210 577.34 -210 576.68 -210 576 C-209.34 576 -208.68 576 -208 576 C-208 575.34 -208 574.68 -208 574 C-207.34 574 -206.68 574 -206 574 C-206 573.34 -206 572.68 -206 572 C-205.34 572 -204.68 572 -204 572 C-204 570.68 -204 569.36 -204 568 C-203.34 568 -202.68 568 -202 568 C-202 566.02 -202 564.04 -202 562 C-201.34 562 -200.68 562 -200 562 C-200 558.7 -200 555.4 -200 552 C-199.34 552 -198.68 552 -198 552 C-198 550.68 -198 549.36 -198 548 C-197.34 548 -196.68 548 -196 548 C-196 544.04 -196 540.08 -196 536 C-195.34 536 -194.68 536 -194 536 C-194 533.36 -194 530.72 -194 528 C-193.34 528 -192.68 528 -192 528 C-192 524.7 -192 521.4 -192 518 C-191.34 518 -190.68 518 -190 518 C-190 516.02 -190 514.04 -190 512 C-189.34 512 -188.68 512 -188 512 C-188 510.02 -188 508.04 -188 506 C-187.34 506 -186.68 506 -186 506 C-186 502.04 -186 498.08 -186 494 C-185.34 494 -184.68 494 -184 494 C-184 492.68 -184 491.36 -184 490 C-183.34 490 -182.68 490 -182 490 C-182 486.04 -182 482.08 -182 478 C-181.34 478 -180.68 478 -180 478 C-180 476.02 -180 474.04 -180 472 C-179.34 472 -178.68 472 -178 472 C-178 469.36 -178 466.72 -178 464 C-177.34 464 -176.68 464 -176 464 C-176 460.7 -176 457.4 -176 454 C-175.34 454 -174.68 454 -174 454 C-174 451.36 -174 448.72 -174 446 C-173.34 446 -172.68 446 -172 446 C-172 442.7 -172 439.4 -172 436 C-171.34 436 -170.68 436 -170 436 C-170 434.02 -170 432.04 -170 430 C-169.34 430 -168.68 430 -168 430 C-168 428.02 -168 426.04 -168 424 C-167.34 424 -166.68 424 -166 424 C-166 420.04 -166 416.08 -166 412 C-165.34 412 -164.68 412 -164 412 C-164 410.68 -164 409.36 -164 408 C-163.34 408 -162.68 408 -162 408 C-162 404.04 -162 400.08 -162 396 C-161.34 396 -160.68 396 -160 396 C-160 394.02 -160 392.04 -160 390 C-159.34 390 -158.68 390 -158 390 C-158 386.7 -158 383.4 -158 380 C-157.34 380 -156.68 380 -156 380 C-156 377.36 -156 374.72 -156 372 C-155.34 372 -154.68 372 -154 372 C-154 370.68 -154 369.36 -154 368 C-153.34 368 -152.68 368 -152 368 C-152 364.7 -152 361.4 -152 358 C-151.34 358 -150.68 358 -150 358 C-150 354.7 -150 351.4 -150 348 C-149.34 348 -148.68 348 -148 348 C-148 346.02 -148 344.04 -148 342 C-147.34 342 -146.68 342 -146 342 C-146 339.36 -146 336.72 -146 334 C-145.34 334 -144.68 334 -144 334 C-144 330.7 -144 327.4 -144 324 C-143.34 324 -142.68 324 -142 324 C-142 320.7 -142 317.4 -142 314 C-141.34 314 -140.68 314 -140 314 C-140 312.02 -140 310.04 -140 308 C-139.34 308 -138.68 308 -138 308 C-138 304.7 -138 301.4 -138 298 C-137.34 298 -136.68 298 -136 298 C-136 295.36 -136 292.72 -136 290 C-135.34 290 -134.68 290 -134 290 C-134 288.68 -134 287.36 -134 286 C-133.34 286 -132.68 286 -132 286 C-132 282.04 -132 278.08 -132 274 C-131.34 274 -130.68 274 -130 274 C-130 271.36 -130 268.72 -130 266 C-129.34 266 -128.68 266 -128 266 C-128 264.02 -128 262.04 -128 260 C-127.34 260 -126.68 260 -126 260 C-126 256.7 -126 253.4 -126 250 C-125.34 250 -124.68 250 -124 250 C-124 248.02 -124 246.04 -124 244 C-123.34 244 -122.68 244 -122 244 C-122 240.04 -122 236.08 -122 232 C-121.34 232 -120.68 232 -120 232 C-120 230.02 -120 228.04 -120 226 C-119.34 226 -118.68 226 -118 226 C-118 221.38 -118 216.76 -118 212 C-118.66 212 -119.32 212 -120 212 C-120 209.36 -120 206.72 -120 204 C-120.66 204 -121.32 204 -122 204 C-122 202.68 -122 201.36 -122 200 C-122.66 200 -123.32 200 -124 200 C-124 199.34 -124 198.68 -124 198 C-124.66 198 -125.32 198 -126 198 C-126 196.68 -126 195.36 -126 194 C-126.66 194 -127.32 194 -128 194 C-128 193.34 -128 192.68 -128 192 C-128.66 192 -129.32 192 -130 192 C-130 191.34 -130 190.68 -130 190 C-130.66 190 -131.32 190 -132 190 C-132 189.34 -132 188.68 -132 188 C-133.32 188 -134.64 188 -136 188 C-136 187.34 -136 186.68 -136 186 C-137.32 186 -138.64 186 -140 186 C-140 185.34 -140 184.68 -140 184 C-140.66 184 -141.32 184 -142 184 C-142 183.34 -142 182.68 -142 182 C-145.96 182 -149.92 182 -154 182 C-154 181.34 -154 180.68 -154 180 C-155.32 180 -156.64 180 -158 180 C-158 179.34 -158 178.68 -158 178 C-161.96 178 -165.92 178 -170 178 C-170 177.34 -170 176.68 -170 176 C-171.98 176 -173.96 176 -176 176 C-176 175.34 -176 174.68 -176 174 C-179.3 174 -182.6 174 -186 174 C-186 173.34 -186 172.68 -186 172 C-188.64 172 -191.28 172 -194 172 C-194 171.34 -194 170.68 -194 170 C-195.32 170 -196.64 170 -198 170 C-198 169.34 -198 168.68 -198 168 C-200.64 168 -203.28 168 -206 168 C-206 164.7 -206 161.4 -206 158 C-205.34 158 -204.68 158 -204 158 C-204 155.36 -204 152.72 -204 150 C-203.34 150 -202.68 150 -202 150 C-202 147.36 -202 144.72 -202 142 C-201.34 142 -200.68 142 -200 142 C-200 140.02 -200 138.04 -200 136 C-199.34 136 -198.68 136 -198 136 C-198 134.02 -198 132.04 -198 130 C-197.34 130 -196.68 130 -196 130 C-196 126.7 -196 123.4 -196 120 C-195.34 120 -194.68 120 -194 120 C-194 118.68 -194 117.36 -194 116 C-193.34 116 -192.68 116 -192 116 C-192 112.04 -192 108.08 -192 104 C-191.34 104 -190.68 104 -190 104 C-190 102.02 -190 100.04 -190 98 C-189.34 98 -188.68 98 -188 98 C-188 95.36 -188 92.72 -188 90 C-187.34 90 -186.68 90 -186 90 C-186 89.34 -186 88.68 -186 88 C-182.7 88 -179.4 88 -176 88 C-176 88.66 -176 89.32 -176 90 C-173.36 90 -170.72 90 -168 90 C-168 90.66 -168 91.32 -168 92 C-166.02 92 -164.04 92 -162 92 C-162 92.66 -162 93.32 -162 94 C-158.7 94 -155.4 94 -152 94 C-152 94.66 -152 95.32 -152 96 C-150.02 96 -148.04 96 -146 96 C-146 96.66 -146 97.32 -146 98 C-142.7 98 -139.4 98 -136 98 C-136 98.66 -136 99.32 -136 100 C-134.02 100 -132.04 100 -130 100 C-130 100.66 -130 101.32 -130 102 C-126.7 102 -123.4 102 -120 102 C-120 102.66 -120 103.32 -120 104 C-118.02 104 -116.04 104 -114 104 C-114 104.66 -114 105.32 -114 106 C-112.02 106 -110.04 106 -108 106 C-108 106.66 -108 107.32 -108 108 C-104.7 108 -101.4 108 -98 108 C-98 108.66 -98 109.32 -98 110 C-95.36 110 -92.72 110 -90 110 C-90 110.66 -90 111.32 -90 112 C-88.02 112 -86.04 112 -84 112 C-84 112.66 -84 113.32 -84 114 C-80.04 114 -76.08 114 -72 114 C-72 114.66 -72 115.32 -72 116 C-70.02 116 -68.04 116 -66 116 C-66 116.66 -66 117.32 -66 118 C-62.7 118 -59.4 118 -56 118 C-56 118.66 -56 119.32 -56 120 C-53.36 120 -50.72 120 -48 120 C-48 120.66 -48 121.32 -48 122 C-44.7 122 -41.4 122 -38 122 C-38 122.66 -38 123.32 -38 124 C-36.02 124 -34.04 124 -32 124 C-32 123.34 -32 122.68 -32 122 C-31.34 122 -30.68 122 -30 122 C-30 118.7 -30 115.4 -30 112 C-29.34 112 -28.68 112 -28 112 C-28 110.02 -28 108.04 -28 106 C-27.34 106 -26.68 106 -26 106 C-26 102.7 -26 99.4 -26 96 C-25.34 96 -24.68 96 -24 96 C-24 94.68 -24 93.36 -24 92 C-23.34 92 -22.68 92 -22 92 C-22 88.04 -22 84.08 -22 80 C-21.34 80 -20.68 80 -20 80 C-20 78.02 -20 76.04 -20 74 C-19.34 74 -18.68 74 -18 74 C-18 72.02 -18 70.04 -18 68 C-17.34 68 -16.68 68 -16 68 C-16 64.7 -16 61.4 -16 58 C-15.34 58 -14.68 58 -14 58 C-14 56.68 -14 55.36 -14 54 C-13.34 54 -12.68 54 -12 54 C-12 50.04 -12 46.08 -12 42 C-11.34 42 -10.68 42 -10 42 C-10 40.02 -10 38.04 -10 36 C-9.34 36 -8.68 36 -8 36 C-8 34.02 -8 32.04 -8 30 C-7.34 30 -6.68 30 -6 30 C-6 26.7 -6 23.4 -6 20 C-5.34 20 -4.68 20 -4 20 C-4 17.36 -4 14.72 -4 12 C-3.34 12 -2.68 12 -2 12 C-2 9.36 -2 6.72 -2 4 C-1.34 4 -0.68 4 0 4 C0 2.68 0 1.36 0 0 Z " fill="#FEFEFD" transform="translate(603,177)"/>
<path d="M0 0 C2.64 0 5.28 0 8 0 C8 0.66 8 1.32 8 2 C10.64 2 13.28 2 16 2 C16 2.66 16 3.32 16 4 C19.96 4 23.92 4 28 4 C28 4.66 28 5.32 28 6 C29.98 6 31.96 6 34 6 C34 6.66 34 7.32 34 8 C36.64 8 39.28 8 42 8 C42 8.66 42 9.32 42 10 C45.3 10 48.6 10 52 10 C52 10.66 52 11.32 52 12 C55.3 12 58.6 12 62 12 C62 12.66 62 13.32 62 14 C63.98 14 65.96 14 68 14 C68 14.66 68 15.32 68 16 C69.98 16 71.96 16 74 16 C74 16.66 74 17.32 74 18 C76.64 18 79.28 18 82 18 C82 18.66 82 19.32 82 20 C84.64 20 87.28 20 90 20 C90 20.66 90 21.32 90 22 C92.64 22 95.28 22 98 22 C98 22.66 98 23.32 98 24 C99.32 24 100.64 24 102 24 C102 24.66 102 25.32 102 26 C103.32 26 104.64 26 106 26 C106 26.66 106 27.32 106 28 C107.98 28 109.96 28 112 28 C112 28.66 112 29.32 112 30 C113.98 30 115.96 30 118 30 C118 30.66 118 31.32 118 32 C119.32 32 120.64 32 122 32 C122 32.66 122 33.32 122 34 C123.98 34 125.96 34 128 34 C128 34.66 128 35.32 128 36 C129.32 36 130.64 36 132 36 C132 36.66 132 37.32 132 38 C133.32 38 134.64 38 136 38 C136 38.66 136 39.32 136 40 C137.32 40 138.64 40 140 40 C140 40.66 140 41.32 140 42 C141.32 42 142.64 42 144 42 C144 42.66 144 43.32 144 44 C145.32 44 146.64 44 148 44 C148 44.66 148 45.32 148 46 C148.66 46 149.32 46 150 46 C150 46.66 150 47.32 150 48 C151.32 48 152.64 48 154 48 C154 48.66 154 49.32 154 50 C155.32 50 156.64 50 158 50 C158 50.66 158 51.32 158 52 C158.66 52 159.32 52 160 52 C160 52.66 160 53.32 160 54 C161.32 54 162.64 54 164 54 C164 54.66 164 55.32 164 56 C164.66 56 165.32 56 166 56 C166 56.66 166 57.32 166 58 C166.66 58 167.32 58 168 58 C168 58.66 168 59.32 168 60 C168.66 60 169.32 60 170 60 C170 60.66 170 61.32 170 62 C171.32 62 172.64 62 174 62 C174 62.66 174 63.32 174 64 C174.66 64 175.32 64 176 64 C176 64.66 176 65.32 176 66 C176.66 66 177.32 66 178 66 C178 66.66 178 67.32 178 68 C178.66 68 179.32 68 180 68 C180 69.32 180 70.64 180 72 C180.66 72 181.32 72 182 72 C182 72.66 182 73.32 182 74 C182.66 74 183.32 74 184 74 C184 74.66 184 75.32 184 76 C184.66 76 185.32 76 186 76 C186 76.66 186 77.32 186 78 C186.66 78 187.32 78 188 78 C188 79.32 188 80.64 188 82 C188.66 82 189.32 82 190 82 C190 83.32 190 84.64 190 86 C190.66 86 191.32 86 192 86 C192 87.32 192 88.64 192 90 C192.66 90 193.32 90 194 90 C194 91.32 194 92.64 194 94 C194.66 94 195.32 94 196 94 C196 95.98 196 97.96 196 100 C196.66 100 197.32 100 198 100 C198 108.58 198 117.16 198 126 C197.34 126 196.68 126 196 126 C196 128.64 196 131.28 196 134 C195.34 134 194.68 134 194 134 C194 136.64 194 139.28 194 142 C193.34 142 192.68 142 192 142 C192 143.32 192 144.64 192 146 C191.34 146 190.68 146 190 146 C190 147.32 190 148.64 190 150 C189.34 150 188.68 150 188 150 C188 151.32 188 152.64 188 154 C187.34 154 186.68 154 186 154 C186 155.32 186 156.64 186 158 C185.34 158 184.68 158 184 158 C184 158.66 184 159.32 184 160 C183.34 160 182.68 160 182 160 C182 160.66 182 161.32 182 162 C181.34 162 180.68 162 180 162 C180 162.66 180 163.32 180 164 C179.34 164 178.68 164 178 164 C178 164.66 178 165.32 178 166 C177.34 166 176.68 166 176 166 C176 166.66 176 167.32 176 168 C175.34 168 174.68 168 174 168 C174 168.66 174 169.32 174 170 C173.34 170 172.68 170 172 170 C172 170.66 172 171.32 172 172 C171.34 172 170.68 172 170 172 C170 172.66 170 173.32 170 174 C169.34 174 168.68 174 168 174 C168 174.66 168 175.32 168 176 C166.68 176 165.36 176 164 176 C164 176.66 164 177.32 164 178 C162.68 178 161.36 178 160 178 C160 178.66 160 179.32 160 180 C158.68 180 157.36 180 156 180 C156 180.66 156 181.32 156 182 C154.02 182 152.04 182 150 182 C150 182.66 150 183.32 150 184 C148.02 184 146.04 184 144 184 C144 184.66 144 185.32 144 186 C142.68 186 141.36 186 140 186 C140 186.66 140 187.32 140 188 C135.38 188 130.76 188 126 188 C126 188.66 126 189.32 126 190 C108.84 190 91.68 190 74 190 C74 189.34 74 188.68 74 188 C68.06 188 62.12 188 56 188 C56 187.34 56 186.68 56 186 C52.7 186 49.4 186 46 186 C46 185.34 46 184.68 46 184 C43.36 184 40.72 184 38 184 C38 183.34 38 182.68 38 182 C32.72 182 27.44 182 22 182 C22 181.34 22 180.68 22 180 C20.02 180 18.04 180 16 180 C16 179.34 16 178.68 16 178 C12.04 178 8.08 178 4 178 C4 177.34 4 176.68 4 176 C2.02 176 0.04 176 -2 176 C-2 175.34 -2 174.68 -2 174 C-4.64 174 -7.28 174 -10 174 C-10 173.34 -10 172.68 -10 172 C-11.98 172 -13.96 172 -16 172 C-16 171.34 -16 170.68 -16 170 C-19.3 170 -22.6 170 -26 170 C-26 169.34 -26 168.68 -26 168 C-27.98 168 -29.96 168 -32 168 C-32 167.34 -32 166.68 -32 166 C-33.98 166 -35.96 166 -38 166 C-38 162.7 -38 159.4 -38 156 C-37.34 156 -36.68 156 -36 156 C-36 152.7 -36 149.4 -36 146 C-35.34 146 -34.68 146 -34 146 C-34 144.02 -34 142.04 -34 140 C-33.34 140 -32.68 140 -32 140 C-32 137.36 -32 134.72 -32 132 C-31.34 132 -30.68 132 -30 132 C-30 128.7 -30 125.4 -30 122 C-29.34 122 -28.68 122 -28 122 C-28 120.02 -28 118.04 -28 116 C-27.34 116 -26.68 116 -26 116 C-26 112.7 -26 109.4 -26 106 C-25.34 106 -24.68 106 -24 106 C-24 103.36 -24 100.72 -24 98 C-23.34 98 -22.68 98 -22 98 C-22 94.7 -22 91.4 -22 88 C-21.34 88 -20.68 88 -20 88 C-20 86.02 -20 84.04 -20 82 C-19.34 82 -18.68 82 -18 82 C-18 79.36 -18 76.72 -18 74 C-17.34 74 -16.68 74 -16 74 C-16 70.7 -16 67.4 -16 64 C-15.34 64 -14.68 64 -14 64 C-14 62.02 -14 60.04 -14 58 C-13.34 58 -12.68 58 -12 58 C-12 55.36 -12 52.72 -12 50 C-11.34 50 -10.68 50 -10 50 C-10 46.7 -10 43.4 -10 40 C-9.34 40 -8.68 40 -8 40 C-8 38.02 -8 36.04 -8 34 C-7.34 34 -6.68 34 -6 34 C-6 30.04 -6 26.08 -6 22 C-5.34 22 -4.68 22 -4 22 C-4 20.02 -4 18.04 -4 16 C-3.34 16 -2.68 16 -2 16 C-2 12.7 -2 9.4 -2 6 C-1.34 6 -0.68 6 0 6 C0 4.02 0 2.04 0 0 Z " fill="#F0993D" transform="translate(567,649)"/>
<path d="M0 0 C1.32 0 2.64 0 4 0 C4 0.66 4 1.32 4 2 C5.32 2 6.64 2 8 2 C8 2.66 8 3.32 8 4 C11.3 4 14.6 4 18 4 C18 4.66 18 5.32 18 6 C19.98 6 21.96 6 24 6 C24 6.66 24 7.32 24 8 C26.64 8 29.28 8 32 8 C32 8.66 32 9.32 32 10 C35.3 10 38.6 10 42 10 C42 10.66 42 11.32 42 12 C43.98 12 45.96 12 48 12 C48 12.66 48 13.32 48 14 C49.98 14 51.96 14 54 14 C54 14.66 54 15.32 54 16 C56.64 16 59.28 16 62 16 C62 16.66 62 17.32 62 18 C63.98 18 65.96 18 68 18 C68 18.66 68 19.32 68 20 C69.98 20 71.96 20 74 20 C74 20.66 74 21.32 74 22 C75.98 22 77.96 22 80 22 C80 22.66 80 23.32 80 24 C81.32 24 82.64 24 84 24 C84 24.66 84 25.32 84 26 C85.98 26 87.96 26 90 26 C90 26.66 90 27.32 90 28 C91.32 28 92.64 28 94 28 C94 28.66 94 29.32 94 30 C95.98 30 97.96 30 100 30 C100 30.66 100 31.32 100 32 C101.32 32 102.64 32 104 32 C104 32.66 104 33.32 104 34 C105.32 34 106.64 34 108 34 C108 34.66 108 35.32 108 36 C109.32 36 110.64 36 112 36 C112 36.66 112 37.32 112 38 C113.32 38 114.64 38 116 38 C116 38.66 116 39.32 116 40 C117.32 40 118.64 40 120 40 C120 40.66 120 41.32 120 42 C120.66 42 121.32 42 122 42 C122 42.66 122 43.32 122 44 C123.32 44 124.64 44 126 44 C126 44.66 126 45.32 126 46 C126.66 46 127.32 46 128 46 C128 46.66 128 47.32 128 48 C128.66 48 129.32 48 130 48 C130 48.66 130 49.32 130 50 C131.32 50 132.64 50 134 50 C134 50.66 134 51.32 134 52 C134.66 52 135.32 52 136 52 C136 52.66 136 53.32 136 54 C136.66 54 137.32 54 138 54 C138 54.66 138 55.32 138 56 C138.66 56 139.32 56 140 56 C140 56.66 140 57.32 140 58 C140.66 58 141.32 58 142 58 C142 58.66 142 59.32 142 60 C142.66 60 143.32 60 144 60 C144 60.66 144 61.32 144 62 C144.66 62 145.32 62 146 62 C146 62.66 146 63.32 146 64 C146.66 64 147.32 64 148 64 C148 65.32 148 66.64 148 68 C148.66 68 149.32 68 150 68 C150 68.66 150 69.32 150 70 C150.66 70 151.32 70 152 70 C152 70.66 152 71.32 152 72 C152.66 72 153.32 72 154 72 C154 73.32 154 74.64 154 76 C154.66 76 155.32 76 156 76 C156 77.32 156 78.64 156 80 C156.66 80 157.32 80 158 80 C158 82.64 158 85.28 158 88 C158.66 88 159.32 88 160 88 C160 89.98 160 91.96 160 94 C160.66 94 161.32 94 162 94 C162 101.26 162 108.52 162 116 C161.34 116 160.68 116 160 116 C160 117.98 160 119.96 160 122 C159.34 122 158.68 122 158 122 C158 124.64 158 127.28 158 130 C157.34 130 156.68 130 156 130 C156 131.32 156 132.64 156 134 C155.34 134 154.68 134 154 134 C154 135.98 154 137.96 154 140 C153.34 140 152.68 140 152 140 C152 140.66 152 141.32 152 142 C151.34 142 150.68 142 150 142 C150 143.32 150 144.64 150 146 C149.34 146 148.68 146 148 146 C148 146.66 148 147.32 148 148 C147.34 148 146.68 148 146 148 C146 148.66 146 149.32 146 150 C145.34 150 144.68 150 144 150 C144 150.66 144 151.32 144 152 C143.34 152 142.68 152 142 152 C142 152.66 142 153.32 142 154 C141.34 154 140.68 154 140 154 C140 154.66 140 155.32 140 156 C139.34 156 138.68 156 138 156 C138 156.66 138 157.32 138 158 C137.34 158 136.68 158 136 158 C136 158.66 136 159.32 136 160 C134.68 160 133.36 160 132 160 C132 160.66 132 161.32 132 162 C130.68 162 129.36 162 128 162 C128 162.66 128 163.32 128 164 C126.68 164 125.36 164 124 164 C124 164.66 124 165.32 124 166 C122.68 166 121.36 166 120 166 C120 166.66 120 167.32 120 168 C118.68 168 117.36 168 116 168 C116 168.66 116 169.32 116 170 C112.04 170 108.08 170 104 170 C104 170.66 104 171.32 104 172 C102.02 172 100.04 172 98 172 C98 172.66 98 173.32 98 174 C82.16 174 66.32 174 50 174 C50 173.34 50 172.68 50 172 C46.04 172 42.08 172 38 172 C38 171.34 38 170.68 38 170 C35.36 170 32.72 170 30 170 C30 169.34 30 168.68 30 168 C26.04 168 22.08 168 18 168 C18 167.34 18 166.68 18 166 C14.7 166 11.4 166 8 166 C8 165.34 8 164.68 8 164 C4.04 164 0.08 164 -4 164 C-4 163.34 -4 162.68 -4 162 C-5.98 162 -7.96 162 -10 162 C-10 161.34 -10 160.68 -10 160 C-13.3 160 -16.6 160 -20 160 C-20 159.34 -20 158.68 -20 158 C-21.98 158 -23.96 158 -26 158 C-26 157.34 -26 156.68 -26 156 C-27.98 156 -29.96 156 -32 156 C-32 155.34 -32 154.68 -32 154 C-33.32 154 -34.64 154 -36 154 C-36 151.36 -36 148.72 -36 146 C-35.34 146 -34.68 146 -34 146 C-34 142.7 -34 139.4 -34 136 C-33.34 136 -32.68 136 -32 136 C-32 132.7 -32 129.4 -32 126 C-31.34 126 -30.68 126 -30 126 C-30 124.02 -30 122.04 -30 120 C-29.34 120 -28.68 120 -28 120 C-28 117.36 -28 114.72 -28 112 C-27.34 112 -26.68 112 -26 112 C-26 108.7 -26 105.4 -26 102 C-25.34 102 -24.68 102 -24 102 C-24 100.02 -24 98.04 -24 96 C-23.34 96 -22.68 96 -22 96 C-22 92.7 -22 89.4 -22 86 C-21.34 86 -20.68 86 -20 86 C-20 84.68 -20 83.36 -20 82 C-19.34 82 -18.68 82 -18 82 C-18 78.7 -18 75.4 -18 72 C-17.34 72 -16.68 72 -16 72 C-16 68.7 -16 65.4 -16 62 C-15.34 62 -14.68 62 -14 62 C-14 60.02 -14 58.04 -14 56 C-13.34 56 -12.68 56 -12 56 C-12 53.36 -12 50.72 -12 48 C-11.34 48 -10.68 48 -10 48 C-10 44.7 -10 41.4 -10 38 C-9.34 38 -8.68 38 -8 38 C-8 36.02 -8 34.04 -8 32 C-7.34 32 -6.68 32 -6 32 C-6 28.7 -6 25.4 -6 22 C-5.34 22 -4.68 22 -4 22 C-4 19.36 -4 16.72 -4 14 C-3.34 14 -2.68 14 -2 14 C-2 10.7 -2 7.4 -2 4 C-1.34 4 -0.68 4 0 4 C0 2.68 0 1.36 0 0 Z " fill="#F0993D" transform="translate(627,419)"/>
<path d="M0 0 C2.64 0 5.28 0 8 0 C8 0.66 8 1.32 8 2 C6.02 2 4.04 2 2 2 C2 2.66 2 3.32 2 4 C-1.96 4 -5.92 4 -10 4 C-10 3.34 -10 2.68 -10 2 C-6.7 2 -3.4 2 0 2 C0 1.34 0 0.68 0 0 Z " fill="#FAE2C2" transform="translate(717,1213)"/>
<path d="M0 0 C0.66 0 1.32 0 2 0 C2 1.98 2 3.96 2 6 C2.66 6 3.32 6 4 6 C4 7.32 4 8.64 4 10 C3.34 10 2.68 10 2 10 C2 9.34 2 8.68 2 8 C1.34 8 0.68 8 0 8 C0 5.36 0 2.72 0 0 Z " fill="#F9DBB5" transform="translate(65,803)"/>
<path d="M0 0 C0.66 0 1.32 0 2 0 C2 2.64 2 5.28 2 8 C1.34 8 0.68 8 0 8 C0 8.66 0 9.32 0 10 C-0.66 10 -1.32 10 -2 10 C-2 8.68 -2 7.36 -2 6 C-1.34 6 -0.68 6 0 6 C0 4.02 0 2.04 0 0 Z " fill="#F5C386" transform="translate(63,453)"/>
<path d="M0 0 C2.64 0 5.28 0 8 0 C8 0.66 8 1.32 8 2 C8.66 2 9.32 2 10 2 C10 2.66 10 3.32 10 4 C8.68 4 7.36 4 6 4 C6 3.34 6 2.68 6 2 C4.02 2 2.04 2 0 2 C0 1.34 0 0.68 0 0 Z " fill="#F9DBB3" transform="translate(795,59)"/>
<path d="M0 0 C0.66 0 1.32 0 2 0 C2 0.66 2 1.32 2 2 C3.98 2 5.96 2 8 2 C8 2.66 8 3.32 8 4 C5.36 4 2.72 4 0 4 C0 2.68 0 1.36 0 0 Z " fill="#F9DAB1" transform="translate(527,813)"/>
</svg>
